<?xml version="1.0" encoding="utf-8"?>
<!-- Generator: Adobe Illustrator 24.1.0, SVG Export Plug-In . SVG Version: 6.00 Build 0)  -->
<svg version="1.1" id="Livello_1" xmlns="http://www.w3.org/2000/svg" xmlns:xlink="http://www.w3.org/1999/xlink" x="0px" y="0px"
	 viewBox="0 0 512 512" style="enable-background:new 0 0 512 512;" xml:space="preserve">
<g>
	<path d="M38.7,59.8C52,31.4,85.2,24,109.2,44.1c13.2,11.1,18.6,31.4,12.4,48.1c-1.3,3.6-0.7,5.6,1.9,8c5.7,5.5,11.2,11.3,17.1,17.3
		C174.8,49.9,228.3,10.1,304,3.7c50.2-4.3,95.6,10.5,134.9,42.1c73.2,58.8,94.4,160.9,48.1,244.8c-12.8,23.1-29.8,42.8-50.8,59
		c-20.8,16.1-43.9,27.5-69.4,34.2c-25.6,6.7-51.5,8.4-77.7,4.3c-26-4-50.2-12.8-73.1-26.9c-9,9.1-17.8,18.2-26.7,27.1
		c-36.1,36.2-72.3,72.3-108.4,108.4c-16,16-36.1,18.9-55.7,8.4C2.9,493-4.3,459.8,12,440.4c10.4-12.3,22.3-23.5,33.7-34.9
		c34.8-34.9,69.6-69.7,104.6-104.5c2.5-2.5,2.1-4.2,0.6-6.9c-19.5-33.2-28.3-69.2-26.2-107.6c0.6-11.4,2.9-22.8,4.7-34.1
		c0.4-2.6,0-4.2-1.8-6c-8.8-8.7-17.5-17.4-26.2-26.2c-1.8-1.9-3.4-2.2-5.9-1.2c-22.2,8.5-46.9-1.7-56.6-23.5C37.8,93,35,84,35,77
		C35,68,38.7,59.8,38.7,59.8z M156.4,175.7c-0.4,0.2-0.8,0.4-1.3,0.6c-5.3,58.7,12.8,109.1,59,146.3
		c54.3,43.7,115.1,50.1,177.9,19.5c42.3-20.6,69.3-55.3,83.4-100.9c-8.2,0-15.4,0.1-22.6-0.1c-2.8-0.1-3.9,1.1-5,3.4
		c-10.2,22.3-35.4,32.2-57.9,22.8c-22.2-9.3-32.9-34.5-24.2-57.3c0.8-2.2,0.8-3.5-1-5.2c-8.5-8.3-17-16.8-25.3-25.3
		c-1.6-1.6-2.9-2-5.2-1.1c-10.9,4.3-21.8,4.1-32.8,0.1c-1.3-0.5-3.7-0.1-4.7,0.8c-8.7,8.4-17.2,16.9-25.6,25.6c-1,1-1.5,3.4-1,4.7
		c3.9,10.6,3.8,21,0.4,31.7c-6.8,21-32,34.4-53.1,28.1c-26.8-8-39.6-33.2-30.2-59.7c0.9-2.4,0.2-3.6-1.4-5.1
		c-9.2-9.1-18.3-18.2-27.5-27.3C157.7,176.7,157,176.2,156.4,175.7z M480.6,211.4c0-11.4,1.1-22.4-0.2-33.1
		c-4.7-40.1-21.6-74.5-51.6-101.7C386.1,38,336,24.3,280.3,37.4C225,50.4,186.9,85,165,137.5c-1,2.4-0.5,3.8,1.2,5.5
		c13.6,13.5,27.2,27,40.7,40.7c1.8,1.8,3.3,1.9,5.6,1c10.6-4.2,21.4-4.3,32,0c2.6,1,4,0.6,5.9-1.3c7.9-8.1,15.9-16.2,24.1-24.1
		c2.3-2.2,2.8-3.9,1.6-6.9c-9.6-25.1,6.4-54,32.7-59.1c16.3-3.1,30.6,1.2,41.7,13.6c12.2,13.5,15,29.2,8.9,46.3
		c-0.8,2.2-0.7,3.5,1,5.2c8.5,8.4,16.9,16.8,25.3,25.3c1.6,1.7,2.9,1.9,5.2,1.2c4.4-1.4,9-2.8,13.6-3.1c19-1.2,35.4,9,43.5,26.3
		c0.6,1.4,2.4,3.1,3.7,3.2C461.1,211.5,470.6,211.4,480.6,211.4z M190.7,345c-7.4-7.4-14.2-14.3-21.1-21.2c-0.2,0.2-1.2,1.1-2.1,2
		C132.4,360.9,97.3,396,62.1,431.2c-8.2,8.2-16.6,16.3-24.6,24.8c-8.4,8.9-4.5,22.4,7.1,25.1c6.6,1.6,11.4-1.6,15.9-6
		c32.2-32.3,64.4-64.5,96.7-96.7C168.6,366.9,180.1,355.6,190.7,345z M332.7,137c0-8.1-6.8-14.9-14.9-14.9c-8,0-14.9,7-14.8,15.1
		c0.1,7.9,6.8,14.6,14.7,14.6C325.9,151.9,332.7,145.1,332.7,137z M243.3,226.1c-0.1-8.2-6.9-14.8-15.1-14.7
		c-7.9,0.2-14.6,7-14.6,14.8c0,8.1,6.9,14.9,15,14.9C236.7,241.1,243.4,234.4,243.3,226.1z M392.4,226.4c0,8.1,6.9,14.9,15,14.8
		c8.1-0.1,14.8-7,14.7-15.1c-0.1-7.9-6.8-14.5-14.8-14.6C399.2,211.4,392.3,218.3,392.4,226.4z M79.6,92.2c8.2,0,14.8-6.8,14.7-15
		c-0.1-7.9-6.8-14.6-14.7-14.7c-8.1-0.1-14.9,6.7-14.9,14.8C64.7,85.4,71.5,92.2,79.6,92.2z"/>
</g>
</svg>
