<?xml version="1.0" encoding="utf-8"?>
<!-- Generator: Adobe Illustrator 24.1.0, SVG Export Plug-In . SVG Version: 6.00 Build 0)  -->
<svg version="1.1" id="Livello_1" xmlns="http://www.w3.org/2000/svg" xmlns:xlink="http://www.w3.org/1999/xlink" x="0px" y="0px"
	 viewBox="0 0 452 452" style="enable-background:new 0 0 452 452;" xml:space="preserve">
<g>
	<g>
		<path d="M1,165c0-7.3,0-14.7,0-22c0.3-1.4,0.7-2.9,0.9-4.3C3.6,122.5,8,107,15.4,92.6C40.5,44.3,81.4,17,133.5,5.1
			c8.4-1.9,17-2.8,25.5-4.1c9.3,0,18.7,0,28,0c1.1,0.3,2.2,0.8,3.3,0.9c19.7,1.7,38.8,6.3,56.9,14.3c40.5,18,70.8,46.2,87.4,88
			c1.3,3.3,3.1,4.9,6.4,6c26.8,9,50.7,23.1,69.8,44c39.5,43,51.9,92.3,32.1,148.2c-7.4,21.1-20,39.1-36,54.5
			c-2.5,2.4-3.2,4.3-1.2,7.2c3.1,4.3,5.5,9.3,9.2,13c7.5,7.5,15.9,14.2,23.7,21.4c3.9,3.6,7.9,7.3,10.8,11.6
			c4.3,6.7,1.9,13.5-5.3,16.6c-3.3,1.4-6.9,3.1-10.4,3.1c-10.8,0.2-21.7,0.9-32.3-0.6c-27.9-4-54-14-79.9-24.6
			c-2.8-1.1-6.2-1.6-9.1-1.2c-16.2,2.2-32.5,3.6-48.8,1.7c-62.8-7.3-111.5-35.6-140.4-93.7c-1.2-2.4-2.2-2.7-4.6-1.7
			c-4.9,2.1-9.9,3.9-14.9,5.7c-22.5,7.9-45.2,14.9-69.3,15.9c-8.9,0.4-17.7-0.3-25.8-4.3c-6.1-3-8.3-7.5-5.7-13.8
			c1.3-3.1,3.4-6.2,5.9-8.5c4.7-4.4,10-8.3,15.1-12.4c9.7-7.8,18.2-16.6,23.6-28c1.6-3.4,1.2-5.4-1.5-8.1
			c-20.5-20-34.6-43.8-41.1-71.8C3.1,178.1,2.2,171.5,1,165z M168.4,289.1c9.9-0.8,17.7-1.1,25.5-2.1c34.4-4.6,65.2-17.3,90.4-41.7
			c34.5-33.3,48.6-73.5,37.5-120.8c-7.5-32-26.5-56.8-53.1-75.6c-33.5-23.6-71-32.7-111.6-29.1c-39.6,3.5-74.4,18.2-101.8,47.4
			c-35.7,38.1-45.9,82.3-27.2,131.9c7.8,20.7,21.3,37.6,38,51.8c2.8,2.4,3.4,4.7,2.6,8.2c-2.7,10.9-7.3,20.8-14.9,29
			c-6.2,6.7-13.2,12.6-19.8,18.9c-1.6,1.5-3.1,3.1-4.6,4.7c2.3,0.5,4.5,1,6.8,1.4c1,0.2,2,0.1,3-0.1c8.8-1.5,17.8-2.6,26.5-4.7
			c21.9-5.2,42.8-13.5,63.5-22.1c2.2-0.9,4.8-1.5,7.1-1.3C147.7,286.3,159,287.9,168.4,289.1z"/>
	</g>
</g>
</svg>
