<?xml version="1.0" encoding="utf-8"?>
<!-- Generator: Adobe Illustrator 24.1.0, SVG Export Plug-In . SVG Version: 6.00 Build 0)  -->
<svg version="1.1" id="Capa_1" xmlns="http://www.w3.org/2000/svg" xmlns:xlink="http://www.w3.org/1999/xlink" x="0px" y="0px"
	 viewBox="0 0 512 512" style="enable-background:new 0 0 512 512;" xml:space="preserve">
<style type="text/css">
	.st0{stroke:#000000;stroke-width:10;stroke-miterlimit:10;}
</style>
<g>
	<path class="st0" d="M185.2,55.7c35.6,0,71.2-0.1,106.9,0c30.2,0.1,55.7,17.5,67,45.4c3.1,7.7,5,15.8,5,24.2
		c0.1,37.4,0.2,74.9,0,112.3c-0.2,29-22.1,57.4-50,65.7c-7.5,2.2-15.1,3.4-22.9,3.3c-37.6-0.1-75.3,0-112.9-0.1
		c-2.8,0-4.7,0.9-6.6,2.8c-20.8,20.9-41.7,41.8-62.6,62.7c-7.3,7.3-17,8.2-24.5,2.4c-4.7-3.7-7-8.7-7-14.7c0-16.5-0.1-33,0.1-49.4
		c0-2.9-0.7-3.7-3.7-3.8c-31-1.2-59.2-24.6-66-54.9c-1.2-5.4-2-10.9-2-16.4c-0.2-36-0.5-72.1,0-108.1c0.5-30.3,15.5-51.8,42.5-65.1
		c8.9-4.4,18.5-6.2,28.4-6.2c18.1-0.1,36.2,0,54.2,0C149,55.7,167.1,55.7,185.2,55.7z M113.5,316.6c1.3-1.2,2.2-1.9,3-2.7
		c12.1-12.1,24.3-24.1,36.2-36.3c4.8-4.9,10.2-7,17.1-7c40.7,0.1,81.4,0.1,122.2,0.1c21,0,36.3-15.2,36.4-36.1
		c0.1-35.7,0.1-71.4,0-107.2c-0.1-20.4-15.3-35.7-35.8-35.7c-71.8-0.1-143.5-0.1-215.3,0c-20.2,0-35.5,15.4-35.6,35.6
		c-0.1,35.9-0.1,71.9,0,107.8c0.1,20.1,15.6,35.4,35.7,35.6c6.1,0.1,12.1-0.1,18.2,0.1c10,0.2,17.7,7.9,17.8,17.9
		c0.1,8,0,15.9,0,23.9C113.3,313.7,113.4,314.8,113.5,316.6z"/>
	<path class="st0" d="M400,387.3c0-8.4,0-16.8,0-25.2c0-12.5,7.3-19.7,19.8-19.8c7.8-0.1,15.8,0.3,23.5-1
		c16.5-2.8,28-16.9,28.3-33.7c0.2-10.7,0.1-21.5,0.1-32.2c0-25.3,0.1-50.6,0-75.9c0-16.6-9-29.3-24.7-34.5
		c-3.9-1.3-8.3-1.7-12.5-1.8c-16.3-0.2-32.5-0.1-48.8,0c-2.8,0-3.7-0.7-3.6-3.5c0.2-9.8,0.1-19.6,0-29.3c0-2.4,0.7-3.1,3.1-3.1
		c18.1,0.1,36.2-0.1,54.2,0.2c27.4,0.5,54.5,20.5,63.8,46.8c3,8.5,4.5,17.2,4.5,26.2c-0.1,34.8,0,69.5,0,104.3
		c0,33.8-20.3,61.2-52.6,70.8c-5,1.5-10.4,2.1-15.7,2.5c-2.9,0.2-3.5,1.1-3.4,3.8c0.1,16.7,0.1,33.4,0,50.1
		c-0.1,10.6-8.7,18.5-19.1,17.8c-4.9-0.3-8.9-2.6-12.3-6c-19.7-19.7-39.5-39.2-58.9-59.1c-4.5-4.6-8.9-6.6-15.4-6.5
		c-37.1,0.3-74.2,0.5-111.3-0.1c-23.4-0.4-41.8-11.2-55.9-29.7c-1.6-2.1-1.5-3.5,0.5-5.3c5.8-5.5,11.3-11.2,17-16.8
		c3.1-3,9-2.3,11.5,1.2c7.3,10.2,17.4,15,29.7,15c39.8,0.1,79.5,0,119.3,0c1.5,0,3,0,4.5,0c5.8-0.2,10.5,2,14.5,6.1
		c12.2,12.3,24.5,24.5,36.7,36.8c0.9,0.9,1.8,1.7,2.7,2.5C399.4,387.6,399.7,387.4,400,387.3z"/>
</g>
</svg>
