<?xml version="1.0" encoding="utf-8"?>
<!-- Generator: Adobe Illustrator 24.1.0, SVG Export Plug-In . SVG Version: 6.00 Build 0)  -->
<svg version="1.1" id="Livello_1" xmlns="http://www.w3.org/2000/svg" xmlns:xlink="http://www.w3.org/1999/xlink" x="0px" y="0px"
	 viewBox="0 0 748.3 748.3" style="enable-background:new 0 0 748.3 748.3;" xml:space="preserve">
<g>
	<g>
		<path d="M521.3,513.3c-1.6,1.3-2.9,2.3-4.1,3.5c-27.2,27.4-59.5,45.7-97,54.6c-26.5,6.3-53.3,7.4-80.2,2.5
			c-63.4-11.6-111.2-45.8-143-101.7c-19.3-34-27-71.1-24.5-110.2c2.8-44,18.4-82.9,46.6-116.5c28.7-34.3,65.1-56.8,108.8-67
			c33.3-7.8,66.7-7.4,99.7,2.1c57.8,16.7,100.2,52.1,127.4,105.8c14.8,29.2,20.7,60.5,20.9,93c0.2,28.1-0.3,56.2,0.6,84.2
			c0.7,22.9,19.9,42.3,42.8,45.3c23.7,3.1,46.7-10.5,53.9-32.4c2.1-6.2,3.2-13,3.3-19.6c0.3-29.4,0.3-58.8-0.1-88.3
			c-0.8-55-15.8-105.9-45.2-152.3C583.1,140.4,514.9,93.2,426.3,77c-69.2-12.7-135.1-1.6-196.8,32c-47.8,26-86,62.4-114.3,109.1
			c-37.4,61.6-50.9,128.2-41.1,199.5c8.5,61.6,34.4,115.2,76.2,161.1c44.9,49.3,100.2,80.7,165.7,93.4c17.3,3.4,35.3,3.7,52.9,5.7
			c6.7,0.8,13.9,1.3,19.9,4.1c14.2,6.5,21.2,22.1,17.9,36.8c-3.4,15.3-16.6,26.3-32.5,26.5c-30.1,0.3-60-3-89-10.8
			C163,701.6,77.3,626.6,29.2,509.7C6.6,454.6-1.4,396.8,5.5,337.8c14.7-125,77-219.8,185-284.1C238.4,25.2,290.7,9.4,346.3,6
			c123.2-7.4,226,35.6,307.8,127.8c42.3,47.7,69,103.7,82.2,166c5.3,25.3,7.8,50.9,7.6,76.8c-0.1,26.6,0,53.1,0,79.7
			c-0.1,58-35.3,104.1-91.8,117.4c-38.7,9.1-74.1-0.3-103.8-26.9c-9.2-8.3-16.1-19.2-24-29C523.4,516.6,522.5,515.1,521.3,513.3z
			 M508.3,375.2c0.2-74-60.2-134.5-134.4-134.7c-74.1-0.2-134.6,60.1-134.7,134.3c-0.2,74.1,60,134.4,134.3,134.7
			C447.5,509.8,508.1,449.4,508.3,375.2z"/>
	</g>
</g>
</svg>
