<?xml version="1.0" encoding="utf-8"?>
<!-- Generator: Adobe Illustrator 24.1.0, SVG Export Plug-In . SVG Version: 6.00 Build 0)  -->
<svg version="1.1" id="Livello_1" xmlns="http://www.w3.org/2000/svg" xmlns:xlink="http://www.w3.org/1999/xlink" x="0px" y="0px"
	 viewBox="0 0 748.3 748.3" style="enable-background:new 0 0 748.3 748.3;" xml:space="preserve">
<g>
	<path d="M538,572.2c7.9-1,16-1.5,23.8-3.1c42-8.3,72.9-32.9,96.6-67.3c32.4-47.1,43.8-99.6,38.4-156.2
		c-5.6-58.7-25.2-112.1-59.7-159.9c-41-56.7-94.7-96.3-161-118.7c-45.7-15.4-92.9-20.8-140.5-14.1C213,70.3,125.9,136.4,75.3,249.1
		c-24.1,53.6-30.2,110.5-22.6,168.7C68.1,535.7,148.5,636,259.2,678c32.8,12.5,66.8,19.4,101.8,20.6c5.5,0.2,11,0.3,16.4,1
		c11.6,1.5,20.1,12.2,19.2,23.6c-0.9,11.9-10.5,21.3-22.3,21.4c-27.6,0.3-54.9-3-81.8-9.1c-49.2-11.1-94.3-31.4-135.1-61.1
		c-59.2-43.1-102.2-98.7-128.8-167c-19-48.7-27.3-99.2-24.2-151.3c6.2-104.6,48.9-191.8,127.6-261c44.4-39.1,95.8-65.4,153.2-79.7
		c35.3-8.8,71.3-12.8,107.5-10.4C497.2,12,584.4,54.3,653.5,132.8c37.9,43.1,63.8,92.9,78.4,148.3c9.3,35.2,13.8,71.1,11.5,107.4
		c-3.4,55.4-21,106-55,150.2c-30.9,40.1-71,66.5-120.9,76.7c-33.3,6.8-66.3,4.1-98.7-5.8c-41.3-12.6-77.3-34.5-110.9-61.1
		c-26.6-21.1-49.9-45.6-73.6-69.7c-31.4-32-62.4-64.4-90-99.8c-24.2-31.1-36.7-66.8-34.8-106.5c2-42.3,20.6-75.7,57.1-98
		c5.9-3.6,13.2-5.4,20.2-6.9c12.3-2.8,24.9-4.7,37.3-7c5.5-1,10.5,0.1,14.2,4.3c5.3,6,10.8,11.9,14.9,18.6
		c11,18,18.7,37.6,22.7,58.3c1.3,6.7,1.1,13.9,0.5,20.8c-0.7,8.1-4.9,11.8-13,13.7c-13.4,3.2-26.9,6.5-40.2,9.9
		c-17.9,4.6-19.9,15.4-10.7,30.2c6,9.8,14.4,18.3,22.6,26.5c40,40.3,80.2,80.5,120.5,120.5c8.2,8.2,17.5,15.4,26.3,23
		c1,0.9,2.2,1.5,3.4,2c15,6.2,22.5,3,27-12.6c3.9-13.2,6.9-26.8,10-40.2c2-8.3,5.4-12.1,13.9-13.4c12.3-2,24.2,0.7,35.8,4.4
		c20.1,6.4,39.3,14.5,56,27.9c8.6,6.9,12.2,14.8,9.1,26.2c-3.4,12.1-4.8,24.8-7.5,37.2c-3.8,17-15.3,29.3-27.3,40.9
		c-4.5,4.3-9.7,7.9-14.6,11.8C537.8,571.2,537.9,571.7,538,572.2z"/>
</g>
</svg>
