<?xml version="1.0" encoding="utf-8"?>
<!-- Generator: Adobe Illustrator 26.0.0, SVG Export Plug-In . SVG Version: 6.00 Build 0)  -->
<svg version="1.1" id="Livello_1" xmlns="http://www.w3.org/2000/svg" xmlns:xlink="http://www.w3.org/1999/xlink" x="0px" y="0px"
	 viewBox="0 0 281.61 264.8" style="enable-background:new 0 0 281.61 264.8;" xml:space="preserve">
<g>
	<path d="M147.71,245.49c-11.8,0-23.6,0-35.4,0c-19.72,0-39.44,0-59.15,0c-2.07,0-1.74-0.09-1.75,1.71c-0.02,1.96-0.05,3.92,0,5.88
		c0.1,3.83-3.52,7.43-7.27,7.39c-3.5-0.03-6.9-0.45-10.28-1.39c-8.96-2.48-15.92-7.71-21.17-15.28c-2.39-3.45-4.06-7.29-5.11-11.35
		c-0.83-3.21-1.19-6.51-1.19-9.84c0.01-33.84,0.01-67.68,0.02-101.52c0-1.58,0.16-3.16,0.19-4.74c0.01-0.71-0.18-1.42-0.19-2.13
		c-0.01-8.84-0.05-17.68,0-26.52c0.05-7.69,2.29-14.69,6.67-21.04c3.54-5.13,8.09-9.08,13.55-11.99c3.43-1.83,7.09-3.06,10.92-3.68
		c2.28-0.37,4.61-0.49,6.93-0.49c37.6-0.03,75.2-0.02,112.79-0.02c24.2,0,48.4,0,72.6,0c1.78,0,1.54,0.15,1.54-1.53
		c0.01-11.92,0.05-23.84-0.02-35.76c-0.02-3.38,2.24-6.57,5.68-7.52c0.38-0.11,0.79-0.13,1.18-0.13c3.56,0,7.13-0.11,10.68,0.06
		c1.93,0.09,3.87,0.54,5.75,1.06c5.32,1.47,9.86,4.3,13.64,8.32c3.27,3.47,5.58,7.53,6.93,12.09c0.89,3,1.19,6.09,1.19,9.23
		c-0.01,39.48-0.01,78.96-0.01,118.43c0,17.32-0.01,34.64,0.01,51.96c0.01,3.61-0.27,7.19-1.18,10.68
		c-1.19,4.56-3.18,8.79-5.96,12.6c-2.64,3.62-5.82,6.69-9.56,9.19c-3.43,2.29-7.14,3.95-11.11,5.06c-3.57,1-7.23,1.25-10.91,1.25
		C207.7,245.49,177.7,245.49,147.71,245.49z M63.96,65.53c-6.6,0.01-13.2-0.07-19.8-0.01c-1.94,0.02-3.91,0.27-5.81,0.68
		c-2.26,0.49-4.37,1.45-6.33,2.73c-4.22,2.75-7.26,6.45-9.08,11.15c-0.17,0.43-0.1,0.62,0.33,0.79c0.74,0.28,1.49,0.57,2.17,0.96
		c2.6,1.5,3.88,4.83,3.36,7.34c-0.47,2.29-1.65,4.01-3.66,5.15c-0.62,0.35-1.31,0.57-1.97,0.83c-0.32,0.13-0.37,0.27-0.27,0.62
		c0.6,2.09,1.74,3.92,3.01,5.62c1.5,2,3.29,3.76,5.39,5.17c2.54,1.7,5.25,3,8.31,3.43c1.82,0.26,3.64,0.47,5.47,0.62
		c1.03,0.08,1.93,0.46,2.76,1c2.35,1.51,3.56,3.67,3.56,6.5c0,24.52,0,49.04,0,73.56c0,2.52,0,5.04,0,7.56
		c0,1.29,0.01,1.29,1.34,1.3c0.24,0,0.48,0,0.72,0c2.16,0.03,4.32,0.02,6.47,0.11c0.69,0.03,1.42,0.25,2.06,0.54
		c0.64,0.29,1.57,1.44,1.57,1.44s1.02,0.79,1.52,1.23c0.15,0.13,0.19,0.42,0.24,0.64c0.24,0.91,0.28,1.93,0.74,2.71
		c0.6,1.02,0.33,1.92,0.05,2.86c-1.2,3.92-4.6,5.9-8.6,5.35c-1.19-0.16-2.34-0.23-3.52-0.17c-0.67,0.03-1.34,0.25-2,0.23
		s-0.72,0.28-0.71,0.78c0.02,1.23,0,2.47,0.01,3.7c0.03,2.92,0.07,5.83,0.12,8.75c0.03,2-0.32,1.79,1.77,1.79c31,0,62,0,92.99,0
		c30.76,0,61.52,0.01,92.27-0.02c1.67,0,3.37-0.11,5-0.45c2.93-0.6,5.66-1.76,8.14-3.47c3.47-2.4,6.09-5.53,7.83-9.35
		c1.45-3.16,1.97-6.52,1.96-10c-0.02-30.12-0.01-60.24-0.01-90.35c0-7.56-0.03-15.12-0.03-22.68c0-10.48,0.02-20.96,0.03-31.44
		c0-0.12,0-0.24,0-0.36c-0.04-0.83-0.21-0.97-0.91-0.56c-1.9,1.11-3.92,1.92-6.03,2.51c-1.45,0.41-2.94,0.8-4.44,0.93
		c-2.19,0.2-4.39,0.19-6.59,0.22L72.58,65.49c-1.2,0-2.4,0.03-3.6,0.06L63.96,65.53z M21.42,118.18c0,0.71,0,1.22,0,1.73
		c0,18.96,0,37.91,0,56.87c0,15.28,0.01,30.56-0.01,45.83c0,2.74,0.34,5.44,1.3,7.99c2.08,5.51,5.8,9.65,10.98,12.45
		c0.78,0.42,1.64,0.68,2.63,1.08c0-0.59,0-0.95,0-1.3c0-38.95,0-77.91,0-116.86c0-1.31-0.01-1.32-1.25-1.57
		c-3.18-0.65-6.15-1.87-8.98-3.44C24.58,120.12,23.12,119.2,21.42,118.18z M246.45,49.7c0.03,0.65,4.21,0.32,5.75-0.37
		c5.59-2.49,9.18-7.71,9.17-13.87c0-2.35-0.51-4.59-1.57-6.68c-1.68-3.3-4.24-5.69-7.64-7.14c-1.58-0.68-3.24-1.1-4.99-1.08
		c-0.52,0.01-0.74,0.18-0.7,0.7c0.02,0.2,0,0.4,0,0.6c0,6.44,0.03,12.88-0.02,19.32L246.45,49.7z"/>
	<path d="M111.4,147.99c0-9.88,0.01-19.76-0.01-29.64c0-2.79,1.04-5.03,3.35-6.6c2.17-1.48,4.61-1.68,6.96-0.69
		c5.04,2.12,10.01,4.43,15.01,6.66c5.43,2.42,10.86,4.84,16.3,7.26c4.82,2.14,9.63,4.29,14.45,6.41c5.12,2.26,10.25,4.48,15.36,6.75
		c2.5,1.11,5.02,2.2,7.44,3.46c2.87,1.49,4.27,5.2,3.41,8.29c-0.75,2.69-2.56,4.3-5.01,5.37c-3.67,1.6-7.34,3.22-11,4.84
		c-4.03,1.78-8.05,3.55-12.08,5.33c-2.97,1.32-5.93,2.66-8.9,3.98c-3.52,1.56-7.04,3.11-10.55,4.67c-2.93,1.3-5.85,2.63-8.79,3.93
		c-3.55,1.58-7.11,3.14-10.67,4.71c-1.78,0.78-3.52,1.65-5.33,2.34c-4.34,1.65-9.28-1.36-9.84-6c-0.14-1.15-0.1-2.32-0.1-3.47
		C111.39,166.39,111.39,157.19,111.4,147.99C111.39,147.99,111.39,147.99,111.4,147.99z M167.79,147.97
		c-2.05-0.94-3.91-1.83-5.79-2.66c-4.79-2.12-9.59-4.2-14.37-6.31c-2.28-1.01-4.55-2.07-6.83-3.08c-2.53-1.13-5.07-2.24-7.61-3.36
		c-1.99-0.88-3.99-1.76-5.99-2.61c-0.72-0.31-0.82-0.22-0.86,0.52c-0.01,0.2,0,0.4,0,0.6c0,11.31,0,22.63,0,33.94
		c0,0.24,0.01,0.48,0,0.72c-0.02,0.37,0.15,0.52,0.51,0.44c0.23-0.05,0.47-0.1,0.69-0.19c3.8-1.69,7.6-3.38,11.39-5.08
		c4.05-1.82,8.08-3.66,12.14-5.46c4.56-2.03,9.14-4.01,13.71-6.02C165.74,148.98,166.68,148.5,167.79,147.97z"/>
	<path d="M242.67,80.44c1.16,0,2.32-0.01,3.48,0c2.69,0.03,4.85,1.08,6.43,3.29c2.15,3.02,1.63,7.87-1.64,10.23
		c-1.43,1.03-3.01,1.59-4.79,1.57c-2.4-0.03-4.8,0.01-7.2-0.01c-4.66-0.04-8.31-4.23-7.47-8.8c0.66-3.6,3.44-6.03,7.12-6.27
		C239.94,80.37,241.31,80.45,242.67,80.44L242.67,80.44z"/>
	<path d="M130.16,80.44c1.12,0,2.24,0.01,3.36,0c2.94-0.02,5.24,1.19,6.79,3.67c2.53,4.07,0.5,9.14-3.5,10.77
		c-1.13,0.46-2.27,0.68-3.49,0.66c-2.24-0.04-4.48-0.02-6.72-0.01c-3.32,0.02-6.37-1.88-7.35-5.22c-1.1-3.76,0.26-7.52,4.28-9.24
		c1.09-0.47,2.2-0.67,3.38-0.63C128,80.47,129.08,80.44,130.16,80.44z"/>
	<path d="M55.17,95.53c-1.28,0-2.56,0.04-3.84-0.01c-2.25-0.08-4.19-0.93-5.65-2.66c-3.4-4.02-1.76-10.16,3.08-11.87
		c0.89-0.31,1.86-0.5,2.79-0.53c2.4-0.07,4.79-0.04,7.19-0.02c3.96,0.03,7.23,2.74,7.66,7c0.29,2.91-1.44,6.51-5.3,7.7
		c-0.75,0.23-1.56,0.33-2.35,0.37C57.57,95.58,56.37,95.53,55.17,95.53z"/>
	<path d="M92.63,95.53c-1.2,0-2.4,0.03-3.6-0.01c-2.67-0.07-4.84-1.12-6.37-3.37c-2.62-3.84-1.04-9.48,3.51-11.15
		c0.99-0.36,1.97-0.59,3.03-0.57c2.36,0.03,4.71,0,7.07,0.01c4.52,0.02,7.92,3.74,7.63,7.99c-0.27,3.9-3.14,6.75-7.08,7.08
		C95.44,95.62,94.03,95.52,92.63,95.53L92.63,95.53z"/>
	<path d="M130.15,215.48c-1.28,0-2.56,0.01-3.84,0c-3.35-0.05-6.13-2.02-7.07-5.22c-1.41-4.84,1.72-9.32,6.19-9.61
		c3.22-0.21,6.48-0.16,9.7,0.03c2.58,0.15,4.38,1.76,5.51,4.02c2.01,4.04,0.02,8.46-3.55,10.06c-0.95,0.43-2.05,0.61-3.11,0.71
		C132.71,215.58,131.43,215.48,130.15,215.48L130.15,215.48z"/>
	<path d="M92.56,215.48c-1.24,0-2.48,0.01-3.72,0c-3.27-0.04-5.95-1.9-7.02-4.96c-1.22-3.52,0.1-7.38,3.68-9.2
		c0.84-0.42,1.68-0.73,2.62-0.73c3.16,0.01,6.32-0.1,9.46,0.08c2.65,0.15,4.48,1.79,5.59,4.1c1.74,3.61,0.39,7.09-2.23,9.19
		c-1.22,0.97-2.64,1.47-4.2,1.51C95.35,215.5,93.95,215.47,92.56,215.48C92.56,215.47,92.56,215.48,92.56,215.48z"/>
	<path d="M167.56,215.48c-1.28,0-2.56,0.03-3.84-0.01c-3.48-0.1-6.25-2.13-7.07-5.52c-1.01-4.2,0.88-7.68,5.15-9.21
		c0.47-0.17,1.03-0.17,1.55-0.17c3.08,0.01,6.16-0.07,9.23,0.09c2.55,0.14,4.37,1.68,5.48,3.88c2.01,3.95,0.33,8.52-3.55,10.25
		c-0.92,0.41-1.98,0.58-3,0.66C170.21,215.56,168.88,215.48,167.56,215.48L167.56,215.48z"/>
	<path d="M167.69,80.44c1.12,0,2.24,0.01,3.35,0c2.84-0.02,5.09,1.14,6.66,3.5c2.5,3.78,1,9.14-3.42,10.96
		c-1.13,0.47-2.27,0.66-3.49,0.65c-2.4-0.03-4.8,0.08-7.19-0.03c-3.42-0.16-6.26-2.37-6.98-5.69c-0.91-4.17,1.06-7.66,5.13-9.01
		c0.7-0.23,1.48-0.32,2.23-0.35C165.21,80.4,166.45,80.44,167.69,80.44L167.69,80.44z"/>
	<path d="M240.53,200.52c2.32,0.02,4.63-0.02,6.94,0.12c2.46,0.14,4.24,1.56,5.41,3.6c1.84,3.21,1.11,7.46-1.96,9.73
		c-1.25,0.92-2.63,1.46-4.18,1.49c-1.4,0.03-2.8,0.01-4.19,0.01v0.01c-1.24,0-2.48,0-3.71,0c-4.52-0.01-8-3.97-7.41-8.59
		c0.06-0.51,0.18-1.05,0.42-1.49c0.57-1,1.17-2,1.9-2.89c0.46-0.56,1.92-1.08,1.92-1.08L240.53,200.52z"/>
	<path d="M213.86,213.18c-0.48,1.52-2.02,1.3-3.07,1.89c-1.16,0.65-2.38,0.4-3.6,0.28c-0.5-0.05-1.02,0.12-1.53,0.12
		c-1.48,0.02-2.96,0.03-4.43-0.01c-3.55-0.1-6.34-2.24-7.13-5.73c-0.91-4.05,1.06-7.55,5.18-8.98c0.77-0.27,1.66-0.2,2.5-0.23
		c1.12-0.03,2.24-0.01,3.35-0.01c0,0.03,0,0.07,0,0.1c1.64,0,3.28-0.1,4.91,0.02c3.13,0.23,5.49,2.77,6.15,5.49
		c0.24,1,0,2.14-0.11,3.2c-0.06,0.65-0.24,1.3-0.45,1.91L213.86,213.18z"/>
	<path d="M205.99,80.45c1.62,0.08,3.26-0.2,4.87,0.29c2.65,0.8,4.52,2.49,5.22,5.11c0.99,3.71-0.39,7.31-4.3,9.04
		c-1.12,0.5-2.28,0.69-3.49,0.65c-1.04-0.04-2.08-0.01-3.12-0.01c-1.12,0-2.24-0.04-3.36,0.01c-3.35,0.15-6.69-2.09-7.6-5.39
		c-0.89-3.25,0.06-6.08,2.61-8.11c0.5-0.39,1.2-0.54,1.83-0.75c0.58-0.2,1.24-0.24,1.77-0.51L205.99,80.45z"/>
</g>
</svg>
