<?xml version="1.0" encoding="utf-8"?>
<!-- Generator: Adobe Illustrator 26.0.0, SVG Export Plug-In . SVG Version: 6.00 Build 0)  -->
<svg version="1.1" id="Capa_1" xmlns="http://www.w3.org/2000/svg" xmlns:xlink="http://www.w3.org/1999/xlink" x="0px" y="0px"
	 viewBox="0 0 512 512" style="enable-background:new 0 0 512 512;" xml:space="preserve">
<g>
	<g>
		<g>
			<rect x="456.9" y="158.85" width="54.89" height="55.01"/>
		</g>
		<g>
			<rect x="456.9" y="228.86" width="54.89" height="55.01"/>
		</g>
		<g>
			<rect x="456.9" y="298.88" width="54.89" height="55.01"/>
		</g>
		<g>
			<rect x="456.9" y="368.89" width="54.89" height="55.01"/>
		</g>
		<g>
			<rect x="456.9" y="438.9" width="54.89" height="55.01"/>
		</g>
		<g>
			<path d="M81.06,353.69c-23.5,0-43.57-9.21-59.63-27.36C6.64,309.61,0.16,289.44,2.16,266.38c2.86-32.95,26.44-60.95,58.69-69.66
				c6.82-1.84,13.85-2.78,20.89-2.78c22.77,0,44.47,9.81,59.48,26.58l49.3-33.99l-50.34-33.26c-11.82,13.07-27.01,21.24-45.25,24.32
				c-4.69,0.79-9.4,1.2-13.98,1.2c-14.95,0-29.13-4.21-42.15-12.52c-20.01-12.77-32.38-31.5-35.77-54.16
				c-4.95-33.02,6.87-60.55,34.19-79.62c12.85-8.97,27.47-13.52,43.43-13.52c3.34,0,6.77,0.2,10.21,0.61
				c34.33,4.01,61.28,28.36,68.66,62.03c1.5,6.83,2.08,13.52,1.74,19.92c39.98,27.14,80.53,54.75,119.78,81.47
				c0,0,85.46,58.18,119.67,81.47c0.37,0.25,0.73,0.51,1.09,0.78l5.78,4.2l-1.78,6.94l-1.94,7.5l-27.84,0
				c-11.21,0-22.41-0.01-33.62-0.04c-2.96-0.01-5.94-0.89-8.36-2.48c-33.78-22.26-64.91-42.83-95.02-62.77
				c-30.77,20.88-55.04,37.3-77.88,52.67c0.75,25.05-8.18,46.06-26.56,62.56c-11.91,10.69-25.9,17.12-41.57,19.1
				C88.96,353.43,84.95,353.69,81.06,353.69z M81.78,248.78c-13.83,0-25.12,11.22-25.17,25c-0.02,6.64,2.58,12.93,7.34,17.71
				c4.75,4.78,11.02,7.43,17.66,7.44c13.86,0,25.12-11.21,25.16-25c0.02-6.65-2.6-12.96-7.38-17.75c-4.75-4.77-11-7.4-17.59-7.41
				l-0.01-10V248.78z M81.77,73.75c-13.83,0-25.12,11.22-25.16,25.01c-0.02,6.64,2.59,12.93,7.34,17.71
				c4.75,4.78,11.03,7.42,17.66,7.44c13.86,0,25.11-11.22,25.15-25.01c0.02-6.65-2.6-12.95-7.38-17.75
				c-4.76-4.77-11.01-7.4-17.6-7.4l-0.01-10V73.75z"/>
		</g>
		<g>
			<path d="M302.24,175.1c-2.26,0-4.5-0.7-6.46-2.02c-7.38-4.96-14.78-9.88-22.18-14.81l-7.61-5.07c-0.76-0.51-1.29-1-1.58-1.26
				l-10.03-8.77l13.39-8.78c1.8-1.18,3.56-2.34,5.33-3.49l3.24-2.1c19.25-12.52,38.5-25.04,57.77-37.53
				c2.37-1.54,5.15-2.39,7.81-2.4c12.34-0.03,24.69-0.03,37.03-0.03l19.7,0c0.35,0,0.71,0.01,1.26,0.04l0.67,0.03l29.89,1.35
				l-27.13,18.56c-1.68,1.15-3.23,2.21-4.79,3.27c0,0-68.08,46.22-89.4,60.7C308.15,173.46,305.74,175.1,302.24,175.1z"/>
		</g>
		<g>
			<rect x="386.86" y="158.99" width="54.79" height="54.79"/>
		</g>
		<g>
			<rect x="36.76" y="368.98" width="54.79" height="54.79"/>
		</g>
		<g>
			<rect x="36.81" y="438.98" width="54.79" height="54.79"/>
		</g>
		<g>
			<rect x="106.78" y="438.99" width="54.79" height="54.79"/>
		</g>
		<g>
			<rect x="176.81" y="439.04" width="54.79" height="54.79"/>
		</g>
		<g>
			<rect x="246.83" y="439.04" width="54.79" height="54.79"/>
		</g>
		<g>
			<rect x="316.87" y="438.97" width="54.79" height="54.79"/>
		</g>
		<g>
			<rect x="386.85" y="439.04" width="54.85" height="54.76"/>
		</g>
	</g>
</g>
</svg>
