<?xml version="1.0" encoding="utf-8"?>
<!-- Generator: Adobe Illustrator 24.1.0, SVG Export Plug-In . SVG Version: 6.00 Build 0)  -->
<svg version="1.1" id="Livello_1" xmlns="http://www.w3.org/2000/svg" xmlns:xlink="http://www.w3.org/1999/xlink" x="0px" y="0px"
	 viewBox="0 0 270.3 264.8" style="enable-background:new 0 0 270.3 264.8;" xml:space="preserve">
<style type="text/css">
	.st0{fill:#FFFFFF;}
	.st1{fill:#EB2028;}
	.st2{fill:#BF212F;}
	.st3{fill:#C02433;}
	.st4{fill:#EB232B;}
</style>
<circle class="st0" cx="134.4" cy="133.5" r="123.9"/>
<g>
	<path class="st1" d="M134.8,260.4C77.2,260.9,21.8,221.2,8.6,160.2C-6.9,88.4,41.4,19.1,114.3,7.8c6.9-1.1,13.9-1.8,20.9-1.5
		c0,26.1,0,52.2,0,78.3c-4,3.5-7.7,7.3-10.4,12c-0.6,1.1-1.4,0.8-2.3,0.6c-15.1-3.2-30.3,3.4-38.2,16.6c-0.7,1.1-1.2,1.6-2.7,1.3
		c-18.7-3.6-36.9,8.5-41.1,27.2c-4.1,17.9,7.1,36.3,25.5,40.9c11.4,2.9,23.2,0.8,34.8,1.3c0.2,0,0.7-0.5,0.7-0.8
		c-0.1-12.2-0.2-24.5-0.5-36.7c-0.1-5.2,2.2-8.4,6.6-10.4c8.8-3.9,18.2-4.3,27.6-4.5c0,2,0,4.1,0,6.1c-7.4,0.6-14.8,0.9-22,2.9
		c-4,1.1-6.5,2.9-5.9,7.6c0.4,3.3,0.4,6.8,0,10.2c-0.4,3.8,1.4,5.4,4.7,6.4c7.6,2.4,15.4,2.8,23.2,3.2c0,1.3,0,2.6,0,3.9
		c-7.3-0.1-14.9,0-21.7-2.8c-6.7-2.7-5.8,0.3-6.3,5.1c-0.7,7.3,2.5,10.2,9,11c6.3,0.7,12.7,1.4,19,2.1c0,1.3,0,2.6,0,3.9
		c-7.8,0-15.7-0.2-22.9-3c-5.5-2.2-4.4,0.3-5,3.9c-1.3,8.8,2.8,12.1,10.7,12.8c5.8,0.5,11.5,1.2,17.2,1.8c0,16.1,0,32.2,0,48.4
		C135.2,257.2,135,258.8,134.8,260.4z"/>
	<path class="st2" d="M134.8,260.4c0.1-1.6,0.4-3.2,0.4-4.8c0-16.1,0-32.2,0-48.4c10.1-0.2,20.2-0.1,29.9-3.2c2.1-0.7,4.9-1,5-4.2
		c0.1-3.8,0-7.6,0-11.4c0-0.6,0.3-1.5-1-1c-10.9,4.4-22.4,4.5-34,4.3c0-1.3,0-2.6,0-3.9c10.2-0.1,20.4-0.1,30.3-3.2
		c3.2-1,5.2-2.5,4.7-6.4c-0.3-3-0.1-6.1-0.1-9.2c0-0.6,0.4-1.6-1.1-1c-10.9,4.4-22.4,4.5-33.9,4.4c0-1.3,0-2.6,0-3.9
		c8.2,0,16.4-0.4,24.6-1.7c7.2-1.1,12.1-3.7,10.4-12.3c-0.4-1.8-0.3-3.8,0-5.7c0.8-4.9-1.8-6.8-6-7.9c-9.5-2.5-19.2-2.7-29-2.8
		c0-2,0-4.1,0-6.1c9.3-0.3,18.5-0.1,27.6,2.1c5.6,1.3,12.8,2.5,13.3,9.3c1,13.1,0.3,26.3,0.1,39.4c0,1.7,0.3,1.7,1.6,1.7
		c8.2,0,16.5,0,24.7,0c17,0,32-12.5,34.8-29c2.9-17.2-7-34-23.9-38.9c-5.4-1.5-7-3.8-8.3-8.9c-7.4-29.6-43.8-42.8-69.9-23
		c0-26.1,0-52.2,0-78.3c55.5-2.9,112.5,40.8,125.5,96.2c17.3,73.8-30,144.3-105,156.4C148.8,260,141.8,260.7,134.8,260.4z"/>
	<path class="st3" d="M135.2,142c6.1-0.3,12.2-0.3,18.1,1.7c0.7,0.2,1.2,1,1.8,1.5c-0.6,0.6-1.1,1.4-1.8,1.7c-5.9,2-12,2.2-18.1,1.7
		C135.2,146.3,135.2,144.1,135.2,142z"/>
	<path class="st4" d="M135.2,142c0,2.2,0,4.4,0,6.5c-3.8,0-7.6-0.4-11.2-1.8c-0.6-0.2-1-1-1.5-1.5c0.5-0.5,0.9-1.2,1.5-1.5
		C127.6,142.4,131.4,141.9,135.2,142z"/>
</g>
</svg>
