<?xml version="1.0" encoding="utf-8"?>
<!-- Generator: Adobe Illustrator 24.1.0, SVG Export Plug-In . SVG Version: 6.00 Build 0)  -->
<svg version="1.1" id="Layer_1" xmlns="http://www.w3.org/2000/svg" xmlns:xlink="http://www.w3.org/1999/xlink" x="0px" y="0px"
	 viewBox="0 0 420.5 420.5" style="enable-background:new 0 0 420.5 420.5;" xml:space="preserve">
<style type="text/css">
	.st0{fill:#FFFFFF;}
	.st1{fill:url(#SVGID_1_);}
	.st2{fill:url(#SVGID_2_);}
	.st3{fill:url(#SVGID_3_);}
	.st4{fill:url(#SVGID_4_);}
	.st5{fill:url(#SVGID_5_);}
	.st6{fill:url(#SVGID_6_);}
	.st7{fill:url(#SVGID_7_);}
	.st8{opacity:0.5;}
	.st9{fill:#06033E;}
</style>
<polygon class="st0" points="96.9,92.1 51.3,118.4 51.3,171.1 96.9,197.4 142.5,171.1 142.5,118.4 "/>
<polygon class="st0" points="211.2,26 165.6,52.3 165.6,104.9 211.2,131.3 256.8,104.9 256.8,52.3 "/>
<polygon class="st0" points="325.5,92.2 279.9,118.6 279.9,171.2 325.5,197.5 371.1,171.2 371.1,118.6 "/>
<polygon class="st0" points="211.3,157.5 165.7,183.8 165.7,236.5 211.3,262.8 256.8,236.5 256.8,183.8 "/>
<polygon class="st0" points="325.5,224.7 279.9,251 279.9,303.7 325.5,330 371.1,303.7 371.1,251 "/>
<polygon class="st0" points="96.9,222.6 51.3,249 51.3,301.6 96.9,327.9 142.5,301.6 142.5,249 "/>
<polygon class="st0" points="211.3,289.5 165.7,315.8 165.7,368.5 211.3,394.8 256.8,368.5 256.8,315.8 "/>
<g>
	<g>
		<g>
			<g>
				
					<linearGradient id="SVGID_1_" gradientUnits="userSpaceOnUse" x1="120.8171" y1="365.9272" x2="302.2263" y2="58.2434" gradientTransform="matrix(1 0 0 -1 0 422.4681)">
					<stop  offset="0" style="stop-color:#E39A65"/>
					<stop  offset="0.3542" style="stop-color:#A92FFB"/>
					<stop  offset="0.5215" style="stop-color:#891CFB"/>
					<stop  offset="0.7262" style="stop-color:#6507FA"/>
					<stop  offset="1" style="stop-color:#3919BB"/>
				</linearGradient>
				<path class="st1" d="M210.6,397l-48.1-27.8v-51.5l-20.7-12l-44.4,25.7l-48.1-27.8V248l46.1-26.6v-22l-46.1-26.6v-55.2l48.1-27.8
					l46.1,26.6l19.5-11.2V50.9l47.7-27.4l48.1,27.8v53.9l19.5,11.2l47.3-27.4l48.1,27.8v55.6L327.6,199v23.7l46.1,26.6v55.6
					l-48.1,27.8l-45.2-26.1L259.2,319v51L210.6,397z M167,367.1l41.9,24.1v-46.9L167,320.2V367.1z M212.7,345.1v46.1l41.9-24.1V321
					L212.7,345.1z M168.3,315.6l42.3,24.9l42.7-24.5l-42.7-24.9L168.3,315.6z M284.1,303.6l39,22.4v-44.8L284.1,303.6z M327.6,279.1
					v47.3l41.9-24.1v-47.3L327.6,279.1z M99.4,281.2v44l38.2-22L99.4,281.2z M53.3,301.1l41.9,24.1v-47.3l-41.9-24.1V301.1z
					 M210.6,286.2l47.7,27.8l19.1-10.8v-53.9l46.1-26.6v-24.1l-46.1-26.6v-51.5l-21.6-12.4l-45.2,26.1l-44.8-25.7l-20.7,12v52.3
					L99,199.4v22L145,248v54.8l18.7,10.8l0,0L210.6,286.2z M100.6,277l40.3,23.2v-46.5L100.6,277z M281.6,255.1v45.2l39.4-22.8
					L281.6,255.1z M282.8,250.9l40.7,23.2v-46.5L282.8,250.9z M327.6,227.7v46.9l40.7-23.2L327.6,227.7z M99.4,226.4v46.9l40.7-23.2
					L99.4,226.4z M54.6,249.7l40.7,23.2v-46.5L54.6,249.7z M99.4,147.6v47.3l41.9-24.1v-47.3L99.4,147.6z M53.3,170.8l41.9,24.1
					v-47.3l-41.9-24.1V170.8z M327.6,146.3v47.3l41.9-24.1v-47.3L327.6,146.3z M281.6,169.6l41.9,24.1v-46.9l-41.9-24.1V169.6z
					 M54.6,119.4l41.9,24.5l42.7-24.9L97.3,94.5L54.6,119.4z M282.8,118.1l42.7,24.5l42.7-24.5l-42.7-24.5L282.8,118.1z
					 M170.4,106.1l38.6,22.4V83.7L170.4,106.1z M212.7,83.2v45.2l39-22.4L212.7,83.2z M167,56.7v46.1l39.8-23.2L167,56.7z
					 M215.2,79.5l39.4,22.8V56.7L215.2,79.5z M168.3,53l42.3,24.5L253.3,53l-42.7-24.9L168.3,53z M210.6,265.8L162.5,238v-55.2
					l48.1-27.8l48.1,27.8v55.6L210.6,265.8z M167,236l41.5,24.1v-47.3l-41.9-24.9V236H167z M212.7,212.7V260l41.9-24.1v-47.3
					L212.7,212.7z M169.1,184.1L211,209l42.7-24.5L210.6,160L169.1,184.1z"/>
			</g>
		</g>
	</g>
	<g>
		
			<linearGradient id="SVGID_2_" gradientUnits="userSpaceOnUse" x1="103.1202" y1="355.4935" x2="284.5294" y2="47.8096" gradientTransform="matrix(1 0 0 -1 0 422.4681)">
			<stop  offset="0" style="stop-color:#E39A65"/>
			<stop  offset="0.3542" style="stop-color:#A92FFB"/>
			<stop  offset="0.5215" style="stop-color:#891CFB"/>
			<stop  offset="0.7262" style="stop-color:#6507FA"/>
			<stop  offset="1" style="stop-color:#3919BB"/>
		</linearGradient>
		<polygon class="st2" points="209.4,212.3 141.7,174.1 143.8,170.4 211.4,209 		"/>
	</g>
	<g>
		
			<linearGradient id="SVGID_3_" gradientUnits="userSpaceOnUse" x1="63.7332" y1="332.2709" x2="245.1424" y2="24.5871" gradientTransform="matrix(1 0 0 -1 0 422.4681)">
			<stop  offset="0" style="stop-color:#E39A65"/>
			<stop  offset="0.3542" style="stop-color:#A92FFB"/>
			<stop  offset="0.5215" style="stop-color:#891CFB"/>
			<stop  offset="0.7262" style="stop-color:#6507FA"/>
			<stop  offset="1" style="stop-color:#3919BB"/>
		</linearGradient>
		<polygon class="st3" points="144.2,251.3 142.1,247.6 163.7,235.1 165.8,238.9 		"/>
	</g>
	<g>
		
			<linearGradient id="SVGID_4_" gradientUnits="userSpaceOnUse" x1="78.6082" y1="341.0411" x2="260.0169" y2="33.3569" gradientTransform="matrix(1 0 0 -1 0 422.4681)">
			<stop  offset="0" style="stop-color:#E39A65"/>
			<stop  offset="0.3542" style="stop-color:#A92FFB"/>
			<stop  offset="0.5215" style="stop-color:#891CFB"/>
			<stop  offset="0.7262" style="stop-color:#6507FA"/>
			<stop  offset="1" style="stop-color:#3919BB"/>
		</linearGradient>
		<rect x="207.3" y="263.4" class="st4" width="4.1" height="79.7"/>
	</g>
	<g>
		
			<linearGradient id="SVGID_5_" gradientUnits="userSpaceOnUse" x1="159.1809" y1="388.5464" x2="340.5897" y2="80.8625" gradientTransform="matrix(1 0 0 -1 0 422.4681)">
			<stop  offset="0" style="stop-color:#E39A65"/>
			<stop  offset="0.3542" style="stop-color:#A92FFB"/>
			<stop  offset="0.5215" style="stop-color:#891CFB"/>
			<stop  offset="0.7262" style="stop-color:#6507FA"/>
			<stop  offset="1" style="stop-color:#3919BB"/>
		</linearGradient>
		<polygon class="st5" points="324.3,279.5 255.4,238.9 257.9,235.1 326.4,275.8 		"/>
	</g>
	<g>
		
			<linearGradient id="SVGID_6_" gradientUnits="userSpaceOnUse" x1="199.6687" y1="412.418" x2="381.0779" y2="104.7337" gradientTransform="matrix(1 0 0 -1 0 422.4681)">
			<stop  offset="0" style="stop-color:#E39A65"/>
			<stop  offset="0.3542" style="stop-color:#A92FFB"/>
			<stop  offset="0.5215" style="stop-color:#891CFB"/>
			<stop  offset="0.7262" style="stop-color:#6507FA"/>
			<stop  offset="1" style="stop-color:#3919BB"/>
		</linearGradient>
		<polygon class="st6" points="257.5,185.7 255.8,182.4 324.3,143.8 326.4,147.6 		"/>
	</g>
	<g>
		
			<linearGradient id="SVGID_7_" gradientUnits="userSpaceOnUse" x1="160.5433" y1="389.3498" x2="341.9525" y2="81.6655" gradientTransform="matrix(1 0 0 -1 0 422.4681)">
			<stop  offset="0" style="stop-color:#E39A65"/>
			<stop  offset="0.3542" style="stop-color:#A92FFB"/>
			<stop  offset="0.5215" style="stop-color:#891CFB"/>
			<stop  offset="0.7262" style="stop-color:#6507FA"/>
			<stop  offset="1" style="stop-color:#3919BB"/>
		</linearGradient>
		<polygon class="st7" points="212.7,157.5 208.5,157.5 209.4,79.9 213.5,79.9 		"/>
	</g>
</g>
<g class="st8">
	<g>
		<g>
			<g>
				<path class="st9" d="M210.6,397l-48.1-27.8v-51.5l-20.7-12l-44.4,25.7l-48.1-27.8V248l46.1-26.6v-22l-46.1-26.6v-55.2l48.1-27.8
					l46.1,26.6l19.5-11.2V50.9l47.7-27.4l48.1,27.8v53.9l19.5,11.2l47.3-27.4l48.1,27.8v55.6L327.6,199v23.7l46.1,26.6v55.6
					l-48.1,27.8l-45.2-26.1L259.2,319v51L210.6,397z M167,367.1l41.9,24.1v-46.9L167,320.2V367.1z M212.7,345.1v46.1l41.9-24.1V321
					L212.7,345.1z M168.3,315.6l42.3,24.9l42.7-24.5l-42.7-24.9L168.3,315.6z M284.1,303.6l39,22.4v-44.8L284.1,303.6z M327.6,279.1
					v47.3l41.9-24.1v-47.3L327.6,279.1z M99.4,281.2v44l38.2-22L99.4,281.2z M53.3,301.1l41.9,24.1v-47.3l-41.9-24.1V301.1z
					 M210.6,286.2l47.7,27.8l19.1-10.8v-53.9l46.1-26.6v-24.1l-46.1-26.6v-51.5l-21.6-12.4l-45.2,26.1l-44.8-25.7l-20.7,12v52.3
					L99,199.4v22L145,248v54.8l18.7,10.8l0,0L210.6,286.2z M100.6,277l40.3,23.2v-46.5L100.6,277z M281.6,255.1v45.2l39.4-22.8
					L281.6,255.1z M282.8,250.9l40.7,23.2v-46.5L282.8,250.9z M327.6,227.7v46.9l40.7-23.2L327.6,227.7z M99.4,226.4v46.9l40.7-23.2
					L99.4,226.4z M54.6,249.7l40.7,23.2v-46.5L54.6,249.7z M99.4,147.6v47.3l41.9-24.1v-47.3L99.4,147.6z M53.3,170.8l41.9,24.1
					v-47.3l-41.9-24.1V170.8z M327.6,146.3v47.3l41.9-24.1v-47.3L327.6,146.3z M281.6,169.6l41.9,24.1v-46.9l-41.9-24.1V169.6z
					 M54.6,119.4l41.9,24.5l42.7-24.9L97.3,94.5L54.6,119.4z M282.8,118.1l42.7,24.5l42.7-24.5l-42.7-24.5L282.8,118.1z
					 M170.4,106.1l38.6,22.4V83.7L170.4,106.1z M212.7,83.2v45.2l39-22.4L212.7,83.2z M167,56.7v46.1l39.8-23.2L167,56.7z
					 M215.2,79.5l39.4,22.8V56.7L215.2,79.5z M168.3,53l42.3,24.5L253.3,53l-42.7-24.9L168.3,53z M210.6,265.8L162.5,238v-55.2
					l48.1-27.8l48.1,27.8v55.6L210.6,265.8z M167,236l41.5,24.1v-47.3l-41.9-24.9V236H167z M212.7,212.7V260l41.9-24.1v-47.3
					L212.7,212.7z M169.1,184.1L211,209l42.7-24.5L210.6,160L169.1,184.1z"/>
			</g>
		</g>
	</g>
	<g>
		
			<rect x="174.4" y="152.6" transform="matrix(0.4925 -0.8703 0.8703 0.4925 -77.0152 250.6895)" class="st9" width="4.1" height="77.6"/>
	</g>
	<g>
		
			<rect x="141.2" y="241.1" transform="matrix(0.8715 -0.4904 0.4904 0.8715 -99.4892 106.6088)" class="st9" width="24.9" height="4.1"/>
	</g>
	<g>
		<rect x="207.3" y="263.4" class="st9" width="4.1" height="79.7"/>
	</g>
	<g>
		
			<rect x="288.9" y="217.3" transform="matrix(0.5073 -0.8618 0.8618 0.5073 -78.2651 377.4208)" class="st9" width="4.1" height="79.7"/>
	</g>
	<g>
		
			<rect x="251.7" y="162.9" transform="matrix(0.8738 -0.4862 0.4862 0.8738 -43.4723 162.3689)" class="st9" width="78.8" height="4.1"/>
	</g>
	<g>
		
			<rect x="172" y="116.8" transform="matrix(6.835618e-03 -1 1 6.835618e-03 90.5218 328.8991)" class="st9" width="77.6" height="4.1"/>
	</g>
</g>
</svg>
