<?xml version="1.0" encoding="utf-8"?>
<!-- Generator: Adobe Illustrator 24.1.0, SVG Export Plug-In . SVG Version: 6.00 Build 0)  -->
<svg version="1.1" id="Livello_1" xmlns="http://www.w3.org/2000/svg" xmlns:xlink="http://www.w3.org/1999/xlink" x="0px" y="0px"
	 viewBox="0 0 270.3 264.8" style="enable-background:new 0 0 270.3 264.8;" xml:space="preserve">
<style type="text/css">
	.st0{fill:#FFFFFF;}
	.st1{fill:#5ED46C;}
	.st2{fill:#494949;}
	.st3{fill:#649C72;}
	.st4{fill:#46AE5D;}
	.st5{fill:#5ED46D;}
</style>
<circle class="st0" cx="136.3" cy="133.6" r="125.1"/>
<g>
	<path class="st1" d="M267.5,133c0,73.7-58.3,131.3-133,131.3c-71.4,0-128.9-59.7-128.9-133.7C5.7,60.1,65.4,2.1,137.8,2.2
		C209.2,2.2,267.5,61.1,267.5,133z M232.2,123c0-15.3,0-30.5,0-45.8c0-7.4-5.2-12.6-12.6-12.7c-9.7,0-19.4,0.1-29-0.1
		c-3.1,0-7,1.7-8.5-3.1c-0.1-0.4-1.4-0.7-2.1-0.7c-8.4,0-16.8,0-25.3,0c-1.4,0-2.8,0.5-2.9,1.9c-0.2,2-1.3,2.1-2.8,2.1
		c-11.1,0-22.3-0.1-33.4,0c-6.7,0-12.2,5.4-12.4,12c-0.2,4.7,1.5,11.6-0.9,13.6c-2.8,2.4-9.2,0.6-14,0.7c-3.7,0.1-7.8-1.2-9.8,3.6
		c-1.2,2.8-3.1,2.9-4.8,0.4c-2.8-4.2-5.2-3.5-7.9,0.1c-0.7,1-2.3,3.1-3.3,1c-3.1-6.6-8.7-5.2-13.9-5.1c-4.6,0.1-7.4,2.7-7.4,7.3
		c-0.1,13.6-0.1,27.2,0,40.8c0,3.5,1.9,5.8,5,6.9c1.6,0.5,1.8,1.3,1.8,2.7c0,16.7,0,33.4,0,50.1c0,5.9,3.7,9.1,10.4,9
		c6.3,0,9.9-3.3,9.9-9.1c0-15.5,0-30.9,0-46.4c0-1-0.7-2.5,1.5-2.5c2,0,1.8,1.2,1.8,2.5c0,15.1,0,30.1,0,45.2
		c0,7.1,3.3,10.4,10.4,10.3c6.9-0.1,9.9-3.2,9.9-10.3c0-28,0.3-56-0.2-84c-0.1-6.6,1.5-8.6,7.9-7.8c3,0.4,3.9,0.7,3.9,3.9
		c-0.2,19.6-0.1,39.3-0.1,58.9c0,6.6,4.1,12,10.6,12.7c7,0.7,14.2,0.4,21.3,0.3c1.9,0,1.9,0.5,1.1,1.9c-3.9,6.4-7.7,12.9-11.6,19.3
		c-1,1.7-1,3.1,0.9,4.1c1.8,1,3.1,0.9,4.3-1.1c4.4-7.6,9-15.2,13.5-22.7c0.6-1,1.3-1.5,2.5-1.5c14.5,0,28.9,0,43.4,0
		c1.1,0,1.8,0.4,2.4,1.3c4.5,7.7,9.1,15.3,13.6,22.9c1.1,1.8,2.3,2.2,4.1,1.1c1.8-1.1,2.3-2.3,1-4.2c-3.9-6.3-7.6-12.6-11.3-18.9
		c-0.4-0.6-0.5-1.3-0.8-1.9c0.7-0.1,1.4-0.2,2.1-0.2c6.4,0,12.7,0,19.1,0c7.5,0,12.9-5.4,12.9-12.9
		C232.2,153.5,232.2,138.2,232.2,123z M84.9,73.2c0-8.5-6.6-15.3-14.9-15.3c-8.4,0-15.3,6.7-15.4,15c0,8.5,6.6,15.6,14.6,15.6
		C78.2,88.4,84.9,81.9,84.9,73.2z"/>
	<path class="st2" d="M232.2,123c0,15.3,0,30.5,0,45.8c0,7.5-5.4,12.9-12.9,12.9c-6.4,0-12.7,0-19.1,0c-0.7,0-1.4,0.2-2.1,0.2
		c0.3,0.7,0.4,1.4,0.8,1.9c3.8,6.3,7.5,12.7,11.3,18.9c1.2,2,0.8,3.2-1,4.2c-1.8,1.1-3.1,0.6-4.1-1.1c-4.5-7.6-9.1-15.3-13.6-22.9
		c-0.6-1-1.2-1.4-2.4-1.3c-14.5,0-28.9,0-43.4,0c-1.3,0-1.9,0.5-2.5,1.5c-4.5,7.6-9.1,15.1-13.5,22.7c-1.2,2-2.4,2.1-4.3,1.1
		c-1.9-1.1-1.9-2.4-0.9-4.1c3.9-6.4,7.7-12.9,11.6-19.3c0.9-1.4,0.9-1.9-1.1-1.9c-7.1,0-14.2,0.4-21.3-0.3
		c-6.5-0.6-10.6-6.1-10.6-12.7c0-19.6-0.1-39.3,0.1-58.9c0-3.2-0.9-3.5-3.9-3.9c-6.5-0.8-8,1.2-7.9,7.8c0.5,28,0.2,56,0.2,84
		c0,7.1-3,10.2-9.9,10.3c-7,0.1-10.4-3.2-10.4-10.3c0-15.1,0-30.1,0-45.2c0-1.3,0.2-2.5-1.8-2.5c-2.1,0-1.5,1.5-1.5,2.5
		c0,15.5,0,30.9,0,46.4c0,5.8-3.6,9.1-9.9,9.1c-6.7,0-10.4-3.1-10.4-9c0-16.7,0-33.4,0-50.1c0-1.4-0.2-2.2-1.8-2.7
		c-3.2-1.1-5-3.4-5-6.9c0-13.6-0.1-27.2,0-40.8c0-4.7,2.9-7.2,7.4-7.3c5.2-0.2,10.9-1.5,13.9,5.1c1,2.1,2.6,0,3.3-1
		c2.7-3.6,5.1-4.3,7.9-0.1c1.7,2.5,3.6,2.5,4.8-0.4c2-4.9,6.1-3.6,9.8-3.6c4.8-0.1,11.2,1.7,14-0.7c2.4-2.1,0.7-8.9,0.9-13.6
		c0.2-6.6,5.7-12,12.4-12c11.1-0.1,22.3,0,33.4,0c1.5,0,2.6,0,2.8-2.1c0.1-1.4,1.5-1.9,2.9-1.9c8.4,0,16.8,0,25.3,0
		c0.7,0,2,0.3,2.1,0.7c1.5,4.8,5.4,3.1,8.5,3.1c9.7,0.1,19.4,0,29,0.1c7.4,0,12.6,5.3,12.6,12.7C232.2,92.5,232.2,107.7,232.2,123z
		 M167.8,74.8c-16.9,0-33.8,0-50.7,0c-2.5,0-3.6,1-3.6,3.6c0,12.5-0.1,12.5,12.4,12.5c0.2,0,0.4,0,0.6,0c4.7,0.4,7.5,2.8,7.4,7.6
		c0,4.6-2.8,7.2-7.4,7.4c-3.8,0.2-7.6,0.1-11.3,0c-1.4,0-1.8,0.3-1.8,1.8c0,20,0,40.1,0,60.1c0,2.5,1.1,3.6,3.6,3.6
		c33.8,0,67.5,0,101.3,0c2.5,0,3.6-0.9,3.6-3.5c0-29.8-0.1-59.6,0-89.3c0-2.8-1.1-3.7-3.8-3.7C201.3,74.9,184.6,74.8,167.8,74.8z"/>
	<path class="st2" d="M84.9,73.2c0,8.7-6.8,15.2-15.7,15.2c-8,0-14.7-7.1-14.6-15.6c0-8.3,6.9-15,15.4-15
		C78.3,57.9,84.9,64.7,84.9,73.2z"/>
	<path class="st3" d="M190.6,123.2c0-10.4,0-20.8,0-31.2c0-2.8,1.5-4.2,4.2-4.2c15.1,0.1,13.5-1.8,13.5,13.2c0,17.6,0,35.1,0,52.7
		c0,3.3-1.5,4.7-4.6,4.8c-13.2,0.5-13.2,0.6-13.2-12.6c0-7.6,0-15.1,0-22.7C190.5,123.2,190.5,123.2,190.6,123.2z"/>
	<path class="st4" d="M176,130.6c0,7.8,0,15.6,0,23.5c0,2.9-1.5,4.3-4.3,4.3c-0.1,0-0.3,0-0.4,0c-14.3-0.1-13.2,1.7-13.2-13
		c0-12.5,0-24.9,0-37.4c0-3.6,1.5-5.3,5.3-5.3c14.1,0.1,12.6-1.3,12.6,12.5C176,120.4,176,125.5,176,130.6z"/>
	<path class="st5" d="M143.7,138.3c0,5.2,0,10.5,0,15.7c0,2.9-1.5,4.4-4.4,4.5c-0.1,0-0.3,0-0.4,0c-14.4-0.1-13,1.5-13-12.9
		c0-7.7,0-15.4,0-23.1c0-2.9,1.4-4.5,4.4-4.4c14.8,0.1,13.5-1.9,13.5,13.3C143.7,133.6,143.7,135.9,143.7,138.3z"/>
</g>
</svg>
