<?xml version="1.0" encoding="utf-8"?>
<!-- Generator: Adobe Illustrator 24.1.0, SVG Export Plug-In . SVG Version: 6.00 Build 0)  -->
<svg version="1.1" id="Livello_1" xmlns="http://www.w3.org/2000/svg" xmlns:xlink="http://www.w3.org/1999/xlink" x="0px" y="0px"
	 viewBox="0 0 516.3 109.5" style="enable-background:new 0 0 516.3 109.5;" xml:space="preserve">
<style type="text/css">
	.moubesvg-letter{stroke:#000000;stroke-width:2;stroke-miterlimit:10;}
	.moubesvg-circle1{fill:#FFC107;}
	.moubesvg-circle2{fill:#4CAF50;}
	.moubesvg-circle3{fill:#FF584C;}
	.moubesvg-circle4{fill:#C6A9E9;}
</style>
<g>
	<path class="moubesvg-letter" d="M4.2,3.8C7.4,5.6,47.5-1,44,8.9C41.7,6.6-2.6,14.4,4.2,3.8z M4.2,15c4,2.1,47.3-5.6,43.5,6.1
		C44.8,18.5-3.6,27.5,4.2,15z M4.2,27.2h45.3l1.8,6C48.7,30.5-3.7,39.6,4.2,27.2z M4.2,39.2h48.9l1.8,6C52.4,42.5-4,51.8,4.2,39.2z
		 M4.2,51.3c3.7,2.3,58.9-6,54.4,6.1c-0.2-0.5-25.9,1-25.1-0.7C35,58.4,4.2,57,4.2,57.4C4.2,57.4,4.2,51.3,4.2,51.3z M4.2,63.5h29.3
		v6.1H4.2V63.5z M4.2,75.7h29.3v6.1H4.2V75.7z M4.2,87.8h29.3v5.9H4.2V87.8z M4.2,99.8h29.3v6.1H4.2V99.8z M35.7,63.5
		c17.6,0.1,33.8,0.1,51.5,0c0,0-2.1,6.1-2.1,6.1C81.3,67.5,32.1,75.2,35.7,63.5z M39.9,75.7H83c3.1,11.3-37,4.2-41,6.1
		C42,81.7,39.9,75.7,39.9,75.7z M44.1,87.8c3.3,2.1,42.9-5.6,32.6,5.9C72,92.2,42,98.3,44.1,87.8z M48.1,99.8h26.4l-2.1,6.1
		C67.1,104.7,47.1,109.8,48.1,99.8z M65.8,51.3c2.5,2.8,61.4-6.8,53,6.1c-0.1-0.5-30.5,1-29.1-0.7c0.7,1.8-25.5,0.2-25.8,0.7
		C63.9,57.4,65.8,51.3,65.8,51.3z M69.4,39.2h49.4c8.3,12.6-49,3.3-51.2,6C67.6,45.2,69.4,39.2,69.4,39.2z M73,27.2
		c2.6,2.6,53.6-6.4,45.8,6C117.2,30.2,60.5,40.1,73,27.2z M76.7,15c2.9,2.5,49.8-6.4,42.1,6.1C116.9,18.2,64.3,28,76.7,15z
		 M80.1,3.8c2.3,2.2,45.4-5.5,38.7,5.1C117.5,6.4,69.3,14.8,80.1,3.8z M89.7,63.5h29.1v6.1H89.7V63.5z M89.7,75.7h29.1v6.1H89.7
		V75.7z M89.7,87.8h29.1v5.9H89.7V87.8z M89.7,99.8h29.1v6.1H89.7V99.8z"/>
	<path class="moubesvg-letter" d="M232.6,28h31.1c0,0,0,5.1,0,5.1C261.1,31.1,226.6,38.2,232.6,28z M232.6,39.2h31.1v6h-31.1V39.2z M232.6,51.2
		h31.1v6.1h-31.1V51.2z M232.6,63.4h31.1v6h-31.1V63.4z M233,78.5c-4.6,0,27.4-9.3,35.1,3C266.8,80.1,229.1,84.9,233,78.5z
		 M234.5,87.6h80.9v6.1C312.1,91.3,229.3,100,234.5,87.6z M240.3,99.8c1.5,2.6,65.4-6.3,36.5,6.1
		C269.7,104.9,243.8,109.5,240.3,99.8z M282.3,80.3c-0.2-8.2,28.8-3.7,33-4.8c0,0,0,6,0,6C316.3,80.6,274.9,83.3,282.3,80.3z
		 M285.7,28c3.1,1.7,34.8-4.6,29.6,5.1C312.3,31.4,280.5,37.7,285.7,28z M285.7,39.2h29.6v6h-29.6V39.2z M285.7,51.2h29.6v6.1h-29.6
		V51.2z M285.7,63.4h29.6v6h-29.6V63.4z M285.7,99.8h29.6v6.1h-29.6V99.8z"/>
	<path class="moubesvg-letter" d="M326.4,3.8C344.6,5,387.6,0,403.6,9C402,6.2,317.9,15.5,326.4,3.8z M326.4,15.1c4,2.1,91.9-5.7,88.7,6.1
		C413.4,18,316.4,28.7,326.4,15.1z M326.4,27.3c1,3.4,101.2-7.7,89.2,6.1c0,0-31.2,0-31.2,0c-2.6-6.1-7.7-4-24.6-5.1
		c6.2,10.2-31.1,3-33.5,5.1C326.4,33.4,326.4,27.3,326.4,27.3z M326.4,39.5c2.7,2.1,39.6-5.2,33.5,5.1c5.8-0.8,22,3.1,24.2-5.1
		c0,0,29.7,0,29.7,0c4,11.7-84.1,3.9-87.4,6C326.4,45.5,326.4,39.5,326.4,39.5z M326.4,51.5c7.5,1.6,83.4-4.8,86.2,6.1
		C410.9,54.4,316.6,65,326.4,51.5z M326.4,63.7c3.7,2,39.4-5.4,33.5,6C356.1,67.7,320.4,75,326.4,63.7z M326.4,75.7h33.5v5.4
		c6.2-1.2,26.2,3.8,28.3-5.4c2.9,2.2,38.5-5.7,31.3,6C418,78.5,316.5,89.1,326.4,75.7z M326.4,87.8c0,0.1,91.6-0.3,91.3,0.1
		C425.1,96.2,316,98.4,326.4,87.8z M326.4,99.8c-2.8,2.1,102.9-4.8,72.6,3.7C394.8,105.1,320.3,112.1,326.4,99.8z M381.9,63.7
		c4,1.8,40-5,36.6,6C408.2,69.8,388.9,71.6,381.9,63.7z"/>
	<path class="moubesvg-letter" d="M428.9,3.8h83.2c9.1,11.9-82.1,2.5-83.2,5.4C428.9,9.1,428.9,3.8,428.9,3.8z M428.9,15.2
		c1.7,3.1,92.8-7.3,83.2,6C510.4,18,419.3,28.4,428.9,15.2z M428.9,27.2c0.2,0.9,85.8-1.9,83.2,1.4c0,0-48.1,0-48.1,0
		c6.1,9.5-33.1,2.6-35.1,4.6C428.9,33.2,428.9,27.2,428.9,27.2z M428.9,39.3c1.8,1.9,40.6-4.5,35,4.1c0,0,38.8,0,38.8,0
		c3.7,4.2-73.9,0.7-73.9,1.8C428.9,45.2,428.9,39.3,428.9,39.3z M428.9,51.3c1.9,3,83.2-7.1,73.9,6
		C500.9,54.3,419.6,64.4,428.9,51.3z M428.9,63.4c1,2.3,81-5.3,73.9,4.2c-0.5,1-41.8-2.2-38.8,1.7C460.6,67.3,422.7,74.7,428.9,63.4
		z M428.9,75.4c3.8,2,41.3-5.5,35,6.1C460.2,79.5,422.7,87,428.9,75.4z M428.9,87.6c1.8,3.2,94-7.4,84.2,6.1
		C511.4,90.5,419.1,101.2,428.9,87.6z M428.9,99.8c1.7,3.2,93.9-7.4,84.2,6.1C511.4,102.7,419.2,113.2,428.9,99.8z"/>
</g>
<g>
	<path d="M180.7,24.9c11.5,0,21.4,4.1,29.6,12.4c8.2,8.3,12.4,18.2,12.4,29.8c0,11.7-4.2,21.7-12.5,30c-8.3,8.3-18.4,12.4-30.2,12.4
		c-11.8,0-21.9-4.1-30.3-12.4c-8.4-8.3-12.6-18.3-12.6-30c0-11.9,4.2-21.9,12.6-30C158,29,168.4,24.9,180.7,24.9z M179.8,55
		c-3.3,0-6,1.2-8.3,3.5c-2.3,2.4-3.4,5.3-3.4,8.7c0,3.4,1.2,6.3,3.5,8.6c2.3,2.4,5.1,3.6,8.3,3.6c3.3,0,6-1.2,8.4-3.6
		c2.3-2.4,3.5-5.3,3.5-8.6c0-3.4-1.1-6.3-3.4-8.7C186,56.2,183.2,55,179.8,55z"/>
</g>
<circle class="moubesvg-circle1" cx="160" cy="48.5" r="9"/>
<circle class="moubesvg-circle2" cx="200.8" cy="48.5" r="9"/>
<circle class="moubesvg-circle3" cx="160" cy="85.5" r="9"/>
<circle class="moubesvg-circle4" cx="200.8" cy="85.5" r="9"/>
</svg>
