<?xml version="1.0" encoding="utf-8"?>
<!-- Generator: Adobe Illustrator 24.1.0, SVG Export Plug-In . SVG Version: 6.00 Build 0)  -->
<svg version="1.1" id="moulogo" xmlns="http://www.w3.org/2000/svg" xmlns:xlink="http://www.w3.org/1999/xlink" x="0px" y="0px"
	 viewBox="0 0 507.9 109.5" style="enable-background:new 0 0 507.9 109.5;" xml:space="preserve">
<style type="text/css">
	.moubesvg-letter{stroke:#000000;stroke-width:2;stroke-miterlimit:10;}
	.moubesvg-circle1{fill:#FFC107;}
	.moubesvg-circle2{fill:#4CAF50;}
	.moubesvg-circle3{fill:#FF584C;}
	.moubesvg-circle4{fill:#C6A9E9;}
</style>
<g>
	<path class="moubesvg-letter" d="M3.8,3.8C7,5.6,47.1-1,43.6,8.9C41.3,6.6-3,14.4,3.8,3.8z M3.8,15c4,2.1,47.3-5.6,43.5,6.1
		C44.4,18.5-4,27.5,3.8,15z M3.8,27.2h45.3l1.6,5.2c0.1,0.3-0.2,0.6-0.5,0.5C43.4,31.3-3.7,39,3.8,27.2z M3.8,39.2h48.9l1.6,5.3
		c0.1,0.2-0.1,0.5-0.4,0.4C47.3,43.3-4.1,51.3,3.8,39.2z M3.8,51.3c3.5,2.2,53.7-5.2,54.6,4.5c0.1,0.8-0.6,1.5-1.4,1.5
		c-5-0.1-24.7,0.9-24-0.6c1.4,1.5-24.1,0.5-28.6,0.6c-0.4,0-0.7-0.3-0.7-0.7v-5.3H3.8z M3.8,63.5h29.3v6.1H3.8V63.5z M3.8,75.7h29.3
		v6.1H3.8V75.7z M3.8,87.8h29.3v5.9H3.8V87.8z M3.8,99.8h29.3v6.1H3.8V99.8z M35.3,63.5c17.6,0.1,33.8,0.1,51.5,0l-2.1,6.1
		C80.9,67.5,31.7,75.2,35.3,63.5z M39.5,75.7h43.1c3.1,11.3-37,4.2-41,6.1C41.6,81.7,39.5,75.7,39.5,75.7z M43.7,87.8
		c3.3,2.1,42.9-5.6,32.6,5.9C71.6,92.2,41.6,98.3,43.7,87.8z M47.7,99.8h26.4l-2.1,6.1C66.7,104.7,46.7,109.8,47.7,99.8z M65.4,51.3
		c2.4,2.7,58.8-6.4,53.5,5.3c-0.2,0.5-0.7,0.8-1.2,0.8c-4.7-0.2-32.2,0.3-28.3-0.6c2.4,0.9-17.3,0.6-23.6,0.6c-1.1,0-1.8-1-1.5-2.1
		L65.4,51.3z M69,39.2h49.4c7.7,11.7-40.7,4.6-49.8,5.6c-0.6,0.1-1.1-0.5-0.9-1.1L69,39.2z M72.6,27.2c2.6,2.6,53.6-6.4,45.8,6
		C116.8,30.2,60.1,40.1,72.6,27.2z M76.3,15c2.9,2.5,49.8-6.4,42.1,6.1C116.5,18.2,63.9,28,76.3,15z M79.7,3.8
		C82,6,125.1-1.7,118.4,8.9C117.1,6.4,68.9,14.8,79.7,3.8z M89.3,63.5h29.1v6.1H89.3V63.5z M89.3,75.7h29.1v6.1H89.3V75.7z
		 M89.3,87.8h29.1v5.9H89.3V87.8z M89.3,99.8h29.1v6.1H89.3V99.8z"/>
	<path class="moubesvg-letter" d="M224.2,28h31.1v5.1C252.7,31.1,218.2,38.2,224.2,28z M224.2,39.2h31.1v6h-31.1V39.2z M224.2,51.2h31.1v6.1
		h-31.1V51.2z M224.2,63.4h31.1v6h-31.1V63.4z M224.6,78.5c-4.5,0,25.4-8.7,34.3,1.9c0.3,0.4,0,0.9-0.4,0.9
		C251.7,80.9,221.1,84.3,224.6,78.5z M226.1,87.6H307v6.1C303.7,91.3,220.9,100,226.1,87.6z M232.7,100.1c7.1,1.3,58.8-6,35.7,5.8
		c-6.9-1-31.5,3.3-36.1-5.3C232.1,100.4,232.4,100.1,232.7,100.1z M273.9,80.3c-0.2-8.2,28.8-3.7,33-4.8v4.9c0,0.5-0.4,0.9-0.9,0.9
		C300,81.1,274.4,83.6,273.9,80.3z M277.3,28c3.1,1.7,34.8-4.6,29.6,5.1C303.9,31.4,272.1,37.7,277.3,28z M277.3,39.2h29.6v6h-29.6
		V39.2z M277.3,51.2h29.6v6.1h-29.6V51.2z M277.3,63.4h29.6v6h-29.6V63.4z M279.7,99.8h27.2v6.1h-29.6v-3.7
		C277.3,100.9,278.4,99.8,279.7,99.8z"/>
	<path class="moubesvg-letter" d="M317.6,4.5c0.2-0.4,0.7-0.7,1.1-0.6c18.6,1,60.7-3.7,76.5,5.2C393.6,6.3,312.9,15.1,317.6,4.5z M318.8,15.3
		c8.8,1.2,77.1-4.3,86.8,3.3c0.9,0.7,0.3,2.2-0.9,2.1c-13.5-1.2-91.7,6.5-87.3-4.6C317.7,15.5,318.2,15.2,318.8,15.3z M318.9,27.7
		c9.8,1.9,97.2-7.2,88.7,5.2c-0.2,0.3-0.6,0.5-1,0.5h-29.8c-0.4,0-0.9-0.2-1.1-0.6c-2.6-5.1-7.6-3.6-22.4-4.4
		c-0.8,0-1.4,0.7-1.2,1.4c1.3,6.7-22.9,3.1-31.4,3.1c-1.5,0-2.7-1.2-2.7-2.7c0-0.7,0-1.3,0-1.9C318,28,318.4,27.6,318.9,27.7z
		 M319.3,39.8c6.7,0.6,34.2-4.1,32.8,3.2c-0.1,0.8,0.4,1.4,1.2,1.4c6.6-0.1,19.5,2.3,22.1-4.3c0.2-0.4,0.6-0.7,1.1-0.7h27.6
		c0.9,0,1.5,0.9,1.1,1.7c-4.6,8.7-75.2,3.1-86,4.1c-0.7,0.1-1.3-0.5-1.3-1.2v-3C318,40.3,318.6,39.8,319.3,39.8z M318.8,51.6
		c9,1,60-2.8,78.6,1.9c2,0.5,1.6,3.5-0.4,3.5c-21.7,0.2-84.2,5.6-79.4-4.7C317.8,51.8,318.3,51.6,318.8,51.6z M318.9,63.9
		c6.3,1,35.9-4.6,33.1,4.6c-0.2,0.6-0.7,1-1.3,0.9c-6.4-1-36,4.5-33.1-4.6C317.7,64.2,318.3,63.9,318.9,63.9z M318.7,75.7h31.6
		c0.7,0,1.2,0.5,1.2,1.2v2.9c0,0.7,0.6,1.2,1.3,1.2c7-0.5,23.5,3.1,26.7-4.2c0.2-0.5,0.7-0.8,1.3-0.8c6.2,0.9,35.1-4.9,30.9,4.7
		c-0.2,0.5-0.8,0.8-1.3,0.7c-9.3-1.9-98.6,6.8-92.7-5C317.8,76,318.2,75.7,318.7,75.7z M318,87.8c0,0.1,78.6-0.2,89.9,0
		c1.2,0,1.6,1.6,0.6,2.2C397.6,96.5,308.6,97.4,318,87.8z M317.7,101.4c-0.1-0.7,0.6-1.3,1.3-1.3c10.6,0.9,99.8-4.5,71.6,3.4
		C386.6,105,318.7,111.5,317.7,101.4z M379.3,64c10.7-0.5,31.5-2.8,31,4.6c0,0.6-0.5,1.1-1.2,1.1c-8.4,0.2-21.9,1.1-30.4-2.5
		C377,66.5,377.5,64,379.3,64z"/>
	<path class="moubesvg-letter" d="M420.5,3.8h83.2c8.9,11.6-78,2.9-83,5.2c-0.1,0-0.2,0-0.2-0.1C420.5,7.7,420.5,3.8,420.5,3.8z M420.5,15.2
		c1.7,3.1,92.8-7.3,83.2,6C502,18,410.9,28.4,420.5,15.2z M420.5,29.5c0-1.2,1-2.1,2.1-2.1c13.3,0.3,83.4-1.8,81.1,1.2h-48.1
		c6.1,9.5-33.1,2.6-35.1,4.6V29.5z M420.5,39.3c1.8,1.9,40.6-4.5,35,4.1h38.8c3.4,3.8-60.3,1.3-72.1,1.6c-1,0-1.8-0.8-1.8-1.8
		C420.5,41.5,420.5,39.3,420.5,39.3z M420.5,51.3c1.9,3,83.2-7.1,73.9,6C492.5,54.3,411.2,64.4,420.5,51.3z M420.5,63.4
		c1,2.3,81-5.3,73.9,4.2c-0.5,1-40.1-2.1-38.9,1.5c0,0.1,0,0.2-0.1,0.1C450.7,67.6,414.4,74.5,420.5,63.4z M420.5,75.4
		c3.8,2,41.3-5.5,35,6.1C451.8,79.5,414.3,87,420.5,75.4z M420.5,87.6c1.8,3.2,94-7.4,84.2,6.1C503,90.5,410.7,101.2,420.5,87.6z
		 M420.5,99.8c1.7,3.2,93.9-7.4,84.2,6.1C503,102.7,410.8,113.2,420.5,99.8z"/>
</g>
<g>
	<path d="M172.3,24.9c11.5,0,21.4,4.1,29.6,12.4c8.2,8.3,12.4,18.2,12.4,29.8c0,11.7-4.2,21.7-12.5,30s-18.4,12.4-30.2,12.4
		s-21.9-4.1-30.3-12.4c-8.4-8.3-12.6-18.3-12.6-30c0-11.9,4.2-21.9,12.6-30C149.6,29,160,24.9,172.3,24.9z M171.4,55
		c-3.3,0-6,1.2-8.3,3.5c-2.3,2.4-3.4,5.3-3.4,8.7c0,3.4,1.2,6.3,3.5,8.6c2.3,2.4,5.1,3.6,8.3,3.6c3.3,0,6-1.2,8.4-3.6
		c2.3-2.4,3.5-5.3,3.5-8.6c0-3.4-1.1-6.3-3.4-8.7C177.6,56.2,174.8,55,171.4,55z"/>
</g>
<circle class="moubesvg-circle1" cx="151.6" cy="48.5" r="9"/>
<circle class="moubesvg-circle2" cx="192.4" cy="48.5" r="9"/>
<circle class="moubesvg-circle3" cx="151.6" cy="85.5" r="9"/>
<circle class="moubesvg-circle4" cx="192.4" cy="85.5" r="9"/>
</svg>
