<?xml version="1.0" encoding="utf-8"?>
<!-- Generator: Adobe Illustrator 24.1.0, SVG Export Plug-In . SVG Version: 6.00 Build 0)  -->
<svg version="1.1" id="Livello_1" xmlns="http://www.w3.org/2000/svg" xmlns:xlink="http://www.w3.org/1999/xlink" x="0px" y="0px"
	 viewBox="0 0 87.9 87.9" style="enable-background:new 0 0 87.9 87.9;" xml:space="preserve">
<style type="text/css">
	.st0{fill:#FFC107;}
	.st1{fill:#4CAF50;}
	.st2{fill:#FF584C;}
	.st3{fill:#C6A9E9;}
</style>
<g>
	<path d="M44.7,1.6c11.5,0,21.4,4.1,29.6,12.4s12.4,18.2,12.4,29.8c0,11.7-4.2,21.7-12.5,30S55.8,86.2,44,86.2s-21.9-4.1-30.3-12.4
		S1.1,55.5,1.1,43.8c0-11.9,4.2-21.9,12.6-30C22,5.7,32.4,1.6,44.7,1.6z M43.8,31.7c-3.3,0-6,1.2-8.3,3.5c-2.3,2.4-3.4,5.3-3.4,8.7
		s1.2,6.3,3.5,8.6c2.3,2.4,5.1,3.6,8.3,3.6c3.3,0,6-1.2,8.4-3.6c2.3-2.4,3.5-5.3,3.5-8.6c0-3.4-1.1-6.3-3.4-8.7
		C50,32.9,47.2,31.7,43.8,31.7z"/>
</g>
<circle class="st0" cx="24" cy="25.2" r="9"/>
<circle class="st1" cx="64.8" cy="25.2" r="9"/>
<circle class="st2" cx="24" cy="62.2" r="9"/>
<circle class="st3" cx="64.8" cy="62.2" r="9"/>
</svg>
