<?xml version="1.0" encoding="utf-8"?>
<!-- Generator: Adobe Illustrator 24.1.0, SVG Export Plug-In . SVG Version: 6.00 Build 0)  -->
<svg version="1.1" id="Livello_1" xmlns="http://www.w3.org/2000/svg" xmlns:xlink="http://www.w3.org/1999/xlink" x="0px" y="0px"
	 viewBox="0 0 86.2 85.2" style="enable-background:new 0 0 86.2 85.2;" xml:space="preserve">
<style type="text/css">
	.st0{fill:#FFC107;}
	.st1{fill:#4CAF50;}
	.st2{fill:#FF584C;}
	.st3{fill:#C6A9E9;}
</style>
<g>
	<path d="M43.9,0.3c11.5,0,21.4,4.1,29.6,12.4c8.2,8.3,12.4,18.2,12.4,29.8c0,11.7-4.2,21.7-12.5,30S55,84.9,43.2,84.9
		s-21.9-4.1-30.3-12.4c-8.4-8.3-12.6-18.3-12.6-30c0-11.9,4.2-21.9,12.6-30C21.2,4.4,31.6,0.3,43.9,0.3z M43,30.4
		c-3.3,0-6,1.2-8.3,3.5c-2.3,2.4-3.4,5.3-3.4,8.7c0,3.4,1.2,6.3,3.5,8.6c2.3,2.4,5.1,3.6,8.3,3.6c3.3,0,6-1.2,8.4-3.6
		c2.3-2.4,3.5-5.3,3.5-8.6c0-3.4-1.1-6.3-3.4-8.7C49.2,31.6,46.4,30.4,43,30.4z"/>
</g>
<circle class="st0" cx="23.2" cy="23.9" r="9"/>
<circle class="st1" cx="64" cy="23.9" r="9"/>
<circle class="st2" cx="23.2" cy="60.9" r="9"/>
<circle class="st3" cx="64" cy="60.9" r="9"/>
</svg>
