<?xml version="1.0" encoding="utf-8"?>
<!-- Generator: Adobe Illustrator 24.1.0, SVG Export Plug-In . SVG Version: 6.00 Build 0)  -->
<svg version="1.1" id="Capa_1" xmlns="http://www.w3.org/2000/svg" xmlns:xlink="http://www.w3.org/1999/xlink" x="0px" y="0px"
	 viewBox="0 0 512 512" style="enable-background:new 0 0 512 512;" xml:space="preserve">

<g>
	<path class="st0" d="M255.7,110.7c46.2-0.3,83.5,36.9,83.7,83.5c0.2,45.7-37.2,83.4-82.9,83.6c-46,0.2-83.8-36.8-84.1-82.4
		C172.1,148.4,208.9,110.9,255.7,110.7z M306,194.2c-0.1-28.2-22.4-50.2-50.6-50.1c-27.6,0.1-49.7,22.6-49.5,50.4
		c0.1,27.6,22.6,49.8,50.3,49.7C283.8,244.2,306.1,221.8,306,194.2z"/>
	<path class="st0" d="M88.7,160.7c36.6-0.3,66.5,29.7,66.8,66.9c0.3,36.3-29.6,66.7-66,66.9c-37.3,0.2-67.6-29.1-67.9-65.8
		C21.3,190.9,50.8,161,88.7,160.7z M121.8,227.7c-0.1-18.7-15-33.5-33.7-33.4c-18.2,0.1-33,15.2-33,33.5
		c0.1,18.4,15.2,33.3,33.6,33.3C107,261,121.9,246,121.8,227.7z"/>
	<path class="st0" d="M423.4,160.6c36.1-0.5,66.3,29.4,66.9,66.1c0.5,36.7-29,67.3-65.6,67.7c-37.5,0.4-67.9-28.9-68.4-66
		C355.7,191.3,385.6,161.1,423.4,160.6z M423.3,261c18.2,0.1,33.4-14.9,33.4-33c0.1-18.4-14.9-33.5-33.2-33.6
		C405,194.2,390,209,390,227.5C389.9,246,404.7,260.9,423.3,261z"/>
	<path class="st0" d="M256,308.1c9.4,0,18.9-0.1,28.3,0c45,0.5,84.3,36.8,88.5,81.6c0.8,8.6-3.5,15.8-11,18.3
		c-9.5,3.2-20.2-3.1-21.9-13.3c-1.4-8.7-3.1-17.1-7.7-24.7c-11-18.3-27.1-28.5-48.4-29.3c-18.7-0.7-37.5-0.5-56.2,0
		c-28,0.7-51.3,22.1-55.2,49.8c-1.3,9.1-7.1,15.1-15.2,15.8c-8.2,0.7-15.9-4-17.5-11.9c-0.9-4.6-0.3-9.8,0.7-14.5
		c9.1-42,45.6-71.5,88.6-71.9C238.2,308,247.1,308.1,256,308.1z"/>
	<path class="st0" d="M423.5,318.2c10.8,0.8,21.9,0.6,32.5,2.7c26.5,5.2,47.6,29,50.8,55.9c1.1,9.4-3.1,16.9-11.2,19.6
		c-7.6,2.6-15.7-0.5-19.8-7.7c-1.1-2-1.8-4.3-2.1-6.6c-2.3-18.2-15.5-30.1-33.8-30.2c-11.4,0-22.8-0.2-34.2,0.1
		c-3.7,0.1-7.6,0.8-11.1,2c-9.6,3.5-20-1.3-22.7-10.8c-2.8-9.7,3.2-18.8,13.2-21.4C397.7,318.7,410.6,318.9,423.5,318.2z"/>
	<path class="st0" d="M5,378.5c1.6-16.3,9-31.4,22.7-43.3c12.7-11,27.7-16.4,44.5-16.2c14.2,0.1,28.4,0.2,42.6,0.8
		c4.7,0.2,9.4,1.6,14,2.9c8.9,2.5,13.8,12.3,10.9,21.1c-3,8.9-12.4,13.4-21.3,10.8c-4.8-1.4-10-2.3-15-2.5
		c-10.3-0.4-20.6-0.2-30.9-0.1c-19,0.1-31.8,11.4-34.3,30.4c-1.2,9.1-9.2,15.7-18.3,15C11.5,396.6,4.9,389.1,5,378.5z"/>
</g>
</svg>
