<?xml version="1.0" encoding="utf-8"?>
<!-- Generator: Adobe Illustrator 24.1.0, SVG Export Plug-In . SVG Version: 6.00 Build 0)  -->
<svg version="1.1" id="Capa_1" xmlns="http://www.w3.org/2000/svg" xmlns:xlink="http://www.w3.org/1999/xlink" x="0px" y="0px"
	 viewBox="0 0 512 512" style="enable-background:new 0 0 512 512;" xml:space="preserve">
<g>
	<path d="M256,188.5c-17.8,0-32.3-14.5-32.3-32.3c0-17.8,14.5-32.4,32.3-32.4s32.3,14.5,32.3,32.4C288.3,174,273.8,188.5,256,188.5z
		"/>
	<path d="M256,387.9c-13.9,0-25.1-11.3-25.1-25.1v-91.7h-19c-13.9,0-25.1-11.3-25.1-25.1c0-13.9,11.3-25.1,25.1-25.1H256
		c13.9,0,25.1,11.3,25.1,25.1v91.7h19c13.9,0,25.1,11.3,25.1,25.1c0,13.9-11.3,25.1-25.1,25.1H256z"/>
	<path d="M256,510.3C115.8,510.3,1.7,396.2,1.7,256C1.7,115.8,115.8,1.7,256,1.7c140.2,0,254.3,114.1,254.3,254.3
		C510.3,396.2,396.2,510.3,256,510.3z M256,52C143.5,52,52,143.5,52,256s91.5,204,204,204c112.5,0,204-91.5,204-204S368.5,52,256,52
		z"/>
</g>
</svg>
