<?xml version="1.0" encoding="utf-8"?>
<!-- Generator: Adobe Illustrator 24.1.0, SVG Export Plug-In . SVG Version: 6.00 Build 0)  -->
<svg version="1.1" id="Livello_1" xmlns="http://www.w3.org/2000/svg" xmlns:xlink="http://www.w3.org/1999/xlink" x="0px" y="0px"
	 viewBox="0 0 512 512" style="enable-background:new 0 0 512 512;" xml:space="preserve">
<path d="M496.9,124.3c0-23.1-18.8-41.9-41.9-41.9c-11.9,0-22.6,5-30.2,12.9L261.2,0.8c-3.1-1.8-6.9-1.8-10,0L87.6,95.3
	c-7.6-8-18.4-12.9-30.2-12.9c-23.1,0-41.9,18.8-41.9,41.9c0,19.7,13.6,36.2,31.9,40.7v188.8c0,3.6,1.9,6.9,5,8.6l163.5,94.4
	c-1.1,3.7-1.7,7.6-1.7,11.7c0,23.1,18.8,41.9,41.9,41.9c23.1,0,41.9-18.8,41.9-41.9c0-4.1-0.6-8-1.7-11.7L460,362.5
	c3.1-1.8,5-5.1,5-8.6V165C483.3,160.5,496.9,144,496.9,124.3z M35.4,124.3c0-12.1,9.8-22,22-22c12.1,0,22,9.8,22,22
	c0,12.1-9.8,22-22,22C45.3,146.2,35.4,136.4,35.4,124.3z M256.2,490.5c-12.1,0-22-9.8-22-22c0-12.1,9.8-22,22-22
	c12.1,0,22,9.9,22,22C278.1,480.7,268.3,490.5,256.2,490.5z M286.4,439.6c-7.6-8-18.4-12.9-30.2-12.9c-11.9,0-22.6,5-30.2,12.9
	L67.4,348V165c18.3-4.5,31.9-21,31.9-40.7c0-4.1-0.6-8-1.7-11.7L256.2,21l158.6,91.5c-1.1,3.7-1.7,7.7-1.7,11.7
	c0,19.7,13.6,36.2,31.9,40.7V348L286.4,439.6z M455,146.2c-12.1,0-22-9.9-22-22c0-12.1,9.9-22,22-22c12.1,0,22,9.8,22,22
	C476.9,136.4,467.1,146.2,455,146.2z"/>
<path d="M392.9,154.3L261.2,78.3c-3.1-1.8-6.9-1.8-10,0l-131.7,76.1c-3.1,1.8-5,5.1-5,8.6v152.1c0,3.6,1.9,6.9,5,8.6l131.7,76.1
	c1.5,0.9,3.3,1.3,5,1.3c1.7,0,3.4-0.4,5-1.3l131.7-76.1c3.1-1.8,5-5.1,5-8.6V163C397.9,159.4,396,156.1,392.9,154.3z M256.2,98.4
	L368,163l-111.8,64.5L144.4,163L256.2,98.4z M266.2,373.9v-45c0-5.5-4.5-10-10-10c-5.5,0-10,4.5-10,10v45l-111.8-64.5V180.3
	l116.8,67.4c1.5,0.9,3.3,1.3,5,1.3c1.7,0,3.4-0.4,5-1.3l116.8-67.4v129.1L266.2,373.9z"/>
<path d="M256.2,274c-2.6,0-5.2,1.1-7.1,2.9c-1.9,1.9-2.9,4.4-2.9,7.1c0,2.6,1.1,5.2,2.9,7.1c1.9,1.9,4.4,2.9,7.1,2.9
	c2.6,0,5.2-1.1,7.1-2.9c1.9-1.9,2.9-4.4,2.9-7.1c0-2.6-1.1-5.2-2.9-7.1C261.4,275,258.8,274,256.2,274z"/>
</svg>
