<?xml version="1.0" encoding="utf-8"?>
<!-- Generator: Adobe Illustrator 24.1.0, SVG Export Plug-In . SVG Version: 6.00 Build 0)  -->
<svg version="1.1" id="Layer_1_1_" xmlns="http://www.w3.org/2000/svg" xmlns:xlink="http://www.w3.org/1999/xlink" x="0px" y="0px"
	 viewBox="0 0 512 512" style="enable-background:new 0 0 512 512;" xml:space="preserve">
<path d="M260,506c-38.9,0-70.5-31.6-70.5-70.5c0-2.8,0.2-5.6,0.5-8.4l0.4-3.5l-54.8-27.4l-2.5,3c-13.4,15.8-33,24.8-53.6,24.8
	C40.6,423.9,9,392.3,9,353.5S40.6,283,79.5,283c7.8,0,15.6,1.3,23,3.9l3.7,1.3l24.1-37.2l-26.5-44.6l-3.8,1.2
	c-6.6,2-13.5,3.1-20.5,3.1C40.6,210.6,9,179,9,140.1c0-38.9,31.6-70.5,70.5-70.5c23.5,0,45.4,11.7,58.5,31.3l2.2,3.3l50.2-18.3
	l-0.4-3.9c-0.3-2.5-0.4-5-0.4-7.5C189.5,35.6,221.1,4,260,4s70.5,31.6,70.5,70.5c0,12.9-3.5,25.5-10.2,36.4l-2,3.4l82.5,82.5l3.4-2
	c10.9-6.7,23.5-10.2,36.4-10.2c38.9,0,70.5,31.6,70.5,70.5s-31.6,70.5-70.5,70.5c-12.3,0-24.4-3.3-35.1-9.4l-3.4-2l-81.5,85.2
	l1.7,3.2c5.4,10.1,8.2,21.5,8.2,33C330.5,474.4,298.9,506,260,506z M260,391.1c-24.5,0-44.4,19.9-44.4,44.4s19.9,44.4,44.4,44.4
	s44.4-19.9,44.4-44.4S284.5,391.1,260,391.1z M128.1,302.3l2.7,2.9c12.4,13.1,19.2,30.3,19.2,48.3c0,5.2-0.6,10.4-1.8,15.5l-0.9,3.8
	l52.3,26.2l2.5-3.6c1.7-2.5,3.6-4.8,5.6-7.1l2.5-2.7L145.1,276L128.1,302.3z M79.5,309.1c-24.5,0-44.4,19.9-44.4,44.4
	s19.9,44.4,44.4,44.4s44.4-19.9,44.4-44.4S104,309.1,79.5,309.1z M345.8,259.9l-1.2,3.2c-8.4,22.5-27.5,39-50.9,44l-3,0.6
	l-16.3,58.6l4.8,1.4c7.3,2.1,14.2,5.3,20.5,9.6l3.5,2.4l80-83.7l-2.1-3.3c-5.5-8.7-9.2-18.7-10.5-29l-0.6-4.5L345.8,259.9z
	 M161,251.6l70.9,119.3l3.9-1.4c3-1.1,6.2-2,9.3-2.7l2.9-0.6l16.3-58.6l-4.8-1.4c-30.2-8.5-51.3-36.4-51.3-67.8
	c0-5.1,0.6-10.2,1.7-15.2l0.9-4L188.5,209L161,251.6z M440.5,210.6c-24.5,0-44.4,19.9-44.4,44.4s19.9,44.4,44.4,44.4
	s44.4-19.9,44.4-44.4S465,210.6,440.5,210.6z M278.7,193.9c-24.5,0-44.4,19.9-44.4,44.4s19.9,44.4,44.4,44.4s44.4-19.9,44.4-44.4
	S303.2,193.9,278.7,193.9z M278.7,167.8c35.5,0,65.5,26.5,69.9,61.7l0.6,4.5l24.2-0.6l1.2-3.2c1.5-4,3.4-7.9,5.6-11.6l2-3.4
	l-82.5-82.5l-3.4,2c-10.9,6.7-23.5,10.2-36.4,10.2c-7.8,0-15.6-1.3-23-3.9l-3.7-1.3l-30.5,47.2l19.6,8.8l2.4-2.9
	C238.3,176.9,257.9,167.8,278.7,167.8z M133.1,185.8c-1.3,1.5-2.7,3-4.2,4.5l-2.8,2.7l19.9,33.5l18.8-29.1l-29.2-14.6L133.1,185.8z
	 M79.5,95.7c-24.5,0-44.4,19.9-44.4,44.4s19.9,44.4,44.4,44.4s44.4-19.9,44.4-44.4S104,95.7,79.5,95.7z M149.1,128.7l0.4,3.9
	c0.3,2.5,0.4,5,0.4,7.5c0,5.2-0.6,10.4-1.8,15.5l-0.9,3.8l31.9,15.9l32.2-49.8l-2.7-2.9c-2.6-2.8-5.1-5.9-7.2-9.1l-2.2-3.3
	L149.1,128.7z M260,30.1c-24.5,0-44.4,19.9-44.4,44.4s19.9,44.4,44.4,44.4s44.4-19.9,44.4-44.4S284.5,30.1,260,30.1z"/>
</svg>
