<?xml version="1.0" encoding="utf-8"?>
<!-- Generator: Adobe Illustrator 24.1.0, SVG Export Plug-In . SVG Version: 6.00 Build 0)  -->
<svg version="1.1" id="Livello_1" xmlns="http://www.w3.org/2000/svg" xmlns:xlink="http://www.w3.org/1999/xlink" x="0px" y="0px"
	 viewBox="0 0 512 512" style="enable-background:new 0 0 512 512;" xml:space="preserve">
<path d="M256.2,510c-25.3,0-45.9-20.6-45.9-45.9c0-3,0.3-6.1,0.9-9.1L54.3,364.4c-4.5-2.6-7.3-7.5-7.3-12.7V170.6
	c-18.6-6.2-31.3-23.6-31.3-43.5c0-25.3,20.6-45.9,45.9-45.9c11.3,0,21.9,4,30.3,11.5L248.9,2c2.2-1.3,4.8-2,7.3-2
	c2.6,0,5.1,0.7,7.3,2l157,90.6c8.4-7.4,19-11.5,30.3-11.5c25.3,0,45.9,20.6,45.9,45.9c0,19.9-12.7,37.3-31.3,43.5v181.2
	c0,5.2-2.8,10.1-7.3,12.7L301.2,455c0.6,3,0.9,6,0.9,9.1C302.1,489.4,281.5,510,256.2,510z M256.2,447.5c-9.2,0-16.6,7.4-16.6,16.6
	s7.4,16.6,16.6,16.6c9.2,0,16.6-7.4,16.6-16.6S265.3,447.5,256.2,447.5z M256.2,418.2c11.3,0,21.9,4.1,30.3,11.5l149.6-86.4V170.6
	c-18.6-6.2-31.3-23.6-31.3-43.5c0-3.1,0.3-6.1,0.9-9.1L256.2,31.6L106.6,118c0.6,3,0.9,6,0.9,9.1c0,19.9-12.7,37.3-31.3,43.5v172.7
	l149.6,86.4C234.2,422.2,244.9,418.2,256.2,418.2z M450.8,110.4c-9.2,0-16.6,7.4-16.6,16.6s7.4,16.6,16.6,16.6s16.6-7.4,16.6-16.6
	S459.9,110.4,450.8,110.4z M61.6,110.4c-9.2,0-16.6,7.4-16.6,16.6s7.4,16.6,16.6,16.6c9.2,0,16.6-7.4,16.6-16.6
	S70.7,110.4,61.6,110.4z"/>
<path d="M256.2,402.9c-2.6,0-5.1-0.7-7.3-2l-129-74.5c-4.5-2.6-7.3-7.5-7.3-12.7V164.9c0-5.2,2.8-10.1,7.3-12.7l129-74.5
	c2.2-1.3,4.8-2,7.3-2c2.6,0,5.1,0.7,7.3,2l129,74.5c4.5,2.6,7.3,7.5,7.3,12.7v148.9c0,5.2-2.8,10.1-7.3,12.7l-129,74.5
	C261.3,402.3,258.7,402.9,256.2,402.9z M256.2,312.6c8.1,0,14.7,6.6,14.7,14.7v35.6l99.6-57.5v-115l-107,61.8c-2.2,1.3-4.8,2-7.3,2
	c-2.6,0-5.1-0.7-7.3-2l-107-61.8v115l99.6,57.5v-35.6C241.5,319.2,248.1,312.6,256.2,312.6z M256.2,222.4l99.6-57.5l-99.6-57.5
	l-99.6,57.5L256.2,222.4z"/>
<path d="M256.2,298c-3.9,0-7.6-1.6-10.4-4.3c-2.7-2.7-4.3-6.5-4.3-10.4c0-3.9,1.6-7.6,4.3-10.4c2.7-2.7,6.5-4.3,10.4-4.3
	c3.9,0,7.6,1.6,10.4,4.3c2.7,2.7,4.3,6.5,4.3,10.4c0,3.9-1.6,7.6-4.3,10.4C263.8,296.4,260,298,256.2,298z"/>
</svg>
