<?xml version="1.0" encoding="utf-8"?>
<!-- Generator: Adobe Illustrator 24.1.0, SVG Export Plug-In . SVG Version: 6.00 Build 0)  -->
<svg version="1.1" id="Capa_1" xmlns="http://www.w3.org/2000/svg" xmlns:xlink="http://www.w3.org/1999/xlink" x="0px" y="0px"
	 viewBox="0 0 512 512" style="enable-background:new 0 0 512 512;" xml:space="preserve">
<g>
	<g>
		<path d="M98.4,364.9c26.8,0,48.6,21.8,48.6,48.6c0,26.8-21.8,48.6-48.6,48.6s-48.6-21.8-48.6-48.6
			C49.9,386.7,71.6,364.9,98.4,364.9 M98.4,314.9C44,314.9-0.1,359-0.1,413.4S44,512,98.4,512s98.6-44.1,98.6-98.6
			S152.8,314.9,98.4,314.9L98.4,314.9z"/>
	</g>
	<g>
		<path d="M413.4,364.9c26.8,0,48.6,21.8,48.6,48.6c0,26.8-21.8,48.6-48.6,48.6c-26.8,0-48.6-21.8-48.6-48.6
			C364.9,386.7,386.7,364.9,413.4,364.9 M413.4,314.9c-54.4,0-98.6,44.1-98.6,98.6S359,512,413.4,512s98.6-44.1,98.6-98.6
			S467.9,314.9,413.4,314.9L413.4,314.9z"/>
	</g>
	<g>
		<path d="M98.4,50c26.8,0,48.6,21.8,48.6,48.6s-21.8,48.6-48.6,48.6s-48.6-21.8-48.6-48.6S71.6,50,98.4,50 M98.4,0
			C44,0-0.1,44.1-0.1,98.6c0,54.4,44.1,98.6,98.6,98.6S197,153,197,98.6C197,44.1,152.8,0,98.4,0L98.4,0z"/>
	</g>
	<g>
		<path d="M413.4,50c26.8,0,48.6,21.8,48.6,48.6s-21.8,48.6-48.6,48.6c-26.8,0-48.6-21.8-48.6-48.6S386.7,50,413.4,50 M413.4,0
			c-54.4,0-98.6,44.1-98.6,98.6c0,54.4,44.1,98.6,98.6,98.6S512,153,512,98.6C512,44.1,467.9,0,413.4,0L413.4,0z"/>
	</g>
</g>
<g>
	<path d="M412.1,49.7c26.8,0,48.6,21.8,48.6,48.6c0,14.7-6.2,25.2-11.5,31.4l-19.6,23.1l11.4,28.1c9.7,23.9,14.7,49.2,14.7,75.2
		c0,25.9-4.9,51.1-14.5,74.9l-11.3,27.9l19.4,23c5.2,6.2,11.4,16.6,11.4,31.3c0,26.8-21.8,48.6-48.6,48.6
		c-14.8,0-25.3-6.3-31.5-11.6l-22.9-19.6l-28,11.1c-23.4,9.3-48.2,14-73.7,14c-26,0-51.3-4.9-75.2-14.7l-28.5-11.6L129,449.7
		c-8.8,7.7-20.2,12-31.9,12c-26.8,0-48.6-21.8-48.6-48.6c0-11.9,4.4-23.4,12.3-32.3l20.5-23l-11.3-28.7
		C61,305.9,56.3,281.3,56.3,256c0-25.4,4.7-50.1,14-73.5l11.4-28.8l-20.7-23c-8-8.9-12.4-20.4-12.4-32.4c0-26.8,21.8-48.6,48.6-48.6
		c11.9,0,23.3,4.3,32.2,12.2l23.2,20.6l28.7-11.6c23.8-9.6,48.9-14.5,74.8-14.5c25.3,0,50,4.7,73.3,13.9l28.2,11.1l22.9-19.8
		C386.6,56.1,397.2,49.7,412.1,49.7 M412.1-0.3c-24.7,0-47.2,9.1-64.5,24C319.3,12.5,288.4,6.3,256,6.3c-33.1,0-64.7,6.4-93.5,18.1
		C145.1,9,122.2-0.3,97.1-0.3C42.7-0.3-1.5,43.8-1.5,98.2c0,25.3,9.5,48.4,25.2,65.9C12.5,192.5,6.3,223.5,6.3,256
		c0,32.3,6.1,63.1,17.3,91.5c-15.6,17.4-25,40.4-25,65.6c0,54.4,44.1,98.6,98.6,98.6c24.8,0,47.5-9.2,64.8-24.3
		c29,11.8,60.8,18.3,94.1,18.3c32.6,0,63.7-6.2,92.2-17.6c17.2,14.7,39.5,23.6,63.9,23.6c54.4,0,98.6-44.1,98.6-98.6
		c0-24.2-8.7-46.3-23.2-63.5c11.7-28.9,18.2-60.5,18.2-93.6c0-33.3-6.5-65-18.4-94.1c14.6-17.2,23.4-39.4,23.4-63.7
		C510.7,43.8,466.6-0.3,412.1-0.3L412.1-0.3z"/>
</g>
</svg>
