<?xml version="1.0" encoding="utf-8"?>
<!-- Svg Vector Icons : http://www.onlinewebfonts.com/icon -->
<!DOCTYPE svg PUBLIC "-//W3C//DTD SVG 1.1//EN" "http://www.w3.org/Graphics/SVG/1.1/DTD/svg11.dtd">
<svg version="1.1" xmlns="http://www.w3.org/2000/svg" xmlns:xlink="http://www.w3.org/1999/xlink" x="0px" y="0px" viewBox="0 0 1000 1000" enable-background="new 0 0 1000 1000" xml:space="preserve">
<metadata> Svg Vector Icons : http://www.onlinewebfonts.com/icon </metadata>
<g><path d="M29.1,461.8l438.3-431c18.9-18.5,49.4-18.5,68.3,0c18.9,18.5,18.9,48.6,0,67.2L176,451.7h764.9c27.1,0,49.1,21.6,49.1,48.3c0,26.7-22,48.3-49.1,48.3H176L535.7,902c18.9,18.5,18.9,48.6,0,67.2c-18.9,18.5-49.4,18.5-68.3,0l-438.3-431c-1.8-1.3-3.9-2-5.6-3.7c-9.1-8.9-13.2-20.5-13.5-32.2c0.3-16.3,4.5-27.9,13.5-36.8C25.2,463.9,27.3,463.2,29.1,461.8L29.1,461.8z"/></g>
</svg>