<?xml version="1.0" encoding="utf-8"?>
<!-- Generator: Adobe Illustrator 24.1.0, SVG Export Plug-In . SVG Version: 6.00 Build 0)  -->
<svg version="1.1" id="Capa_1" xmlns="http://www.w3.org/2000/svg" xmlns:xlink="http://www.w3.org/1999/xlink" x="0px" y="0px"
	 viewBox="0 0 512 512" style="enable-background:new 0 0 512 512;" xml:space="preserve">
<style type="text/css">
	.st0{stroke:#000000;stroke-width:10;stroke-miterlimit:10;}
</style>
<g>
	<g>
		<path class="st0" d="M115.2,146.6h124.6c11,0,19.9,8.9,19.9,19.9c0,11-8.9,19.9-19.9,19.9H115.2c-11,0-19.9-8.9-19.9-19.9
			C95.3,155.5,104.2,146.6,115.2,146.6z"/>
	</g>
</g>
<g>
	<g>
		<path class="st0" d="M115.2,242.7h172.3c11,0,19.9,8.9,19.9,19.9c0,11-8.9,19.9-19.9,19.9H115.2c-11,0-19.9-8.9-19.9-19.9
			C95.3,251.6,104.2,242.7,115.2,242.7z"/>
	</g>
</g>
<g>
	<g>
		<path class="st0" d="M25,22H377c11,0,19.9,8.9,19.9,19.9v187.6H432c41.3,0,74.9,33.6,74.9,74.9v110.7c0,41.3-33.6,74.9-74.9,74.9
			c-3.4,0-6.7-0.2-10-0.7H94c-49,0-88.8-39.8-88.8-88.8V41.9C5.1,30.9,14,22,25,22z M396.8,415.1c0,17,12.2,31.3,28.3,34.5h6.8v0.7
			c19.4,0,35.1-15.8,35.1-35.1V304.4c0-19.4-15.8-35.1-35.1-35.1h-35.1L396.8,415.1L396.8,415.1z M44.9,400.5c0,26.6,22.5,49,49,49
			h271.5c-5.4-10.3-8.4-22-8.4-34.5V61.8H44.9L44.9,400.5L44.9,400.5z"/>
	</g>
</g>
<g>
	<g>
		<path class="st0" d="M115.2,332.9h124.6c11,0,19.9,8.9,19.9,19.9c0,11-8.9,19.9-19.9,19.9H115.2c-11,0-19.9-8.9-19.9-19.9
			C95.3,341.8,104.2,332.9,115.2,332.9z"/>
	</g>
</g>
</svg>
