<?xml version="1.0" encoding="utf-8"?>
<!-- Generator: Adobe Illustrator 24.1.0, SVG Export Plug-In . SVG Version: 6.00 Build 0)  -->
<svg version="1.1" id="Livello_1" xmlns="http://www.w3.org/2000/svg" xmlns:xlink="http://www.w3.org/1999/xlink" x="0px" y="0px"
	 viewBox="0 0 512 512" style="enable-background:new 0 0 512 512;" xml:space="preserve">
<g>
	<path d="M272.3,108.2c-11.2,0-21.5,0-32.4,0c0-12.1,0-24,0-36.4c-1.9,0.4-3.2,0.6-4.5,0.9C181.5,87.2,127.7,101.7,73.9,116
		c-3.7,1-4.9,2.4-4.9,6.3c0.1,103.4,0.1,206.9,0.1,310.3c0,6,0,6,6,6.1c52.8,0,105.6,0,158.4,0c1.8,0,3.7,0,6,0c0-2.5,0-4.4,0-6.4
		c0-91,0-182,0-273.1c0-9.4,4.1-15.6,12-17.7c1.9-0.5,4-0.6,6-0.6c66.3-0.1,132.6-0.2,199-0.2c11,0,17.6,6.6,17.6,17.8
		c0,63.1,0,126.1,0.1,189.2c0,3.6-0.9,4.9-4.7,4.8c-7.6-0.3-15.2-0.3-22.8,0c-4.3,0.2-5.1-1.4-5.1-5.3c0.1-56.2,0-112.5,0.2-168.7
		c0-4-0.9-5.3-5.1-5.3c-52.7,0.2-105.3,0.2-158,0.3c-2,0-4,0-6.3,0c0,88.5,0,176.6,0,265.2c2.2,0,4.2,0,6.1,0
		c74.7,0,149.4,0,224.1,0c6,0,6,0,6,6.1c0,8.7,0,17.3,0,26.2c-169,0-337.5,0-506.3,0c0-10.5,0-21,0-32.2c11.1,0,22.3,0,34.1,0
		c0-2.8,0-5,0-7.1c0-105.6,0-211.2,0-316.9c0-2.6,0-5.3,0-7.9c0.2-10.3,4.3-15.6,14.4-18.3c19.8-5.3,39.6-10.6,59.4-15.9
		c46-12.4,92-24.8,138-37.2c14.9-4,23.9,2.9,23.9,18.4c0,16.5,0,32.9,0,49.4C272.3,104.8,272.3,106.3,272.3,108.2z"/>
	<path d="M115.9,321.4c0-10.8,0-21.2,0-31.9c25.7,0,51.2,0,77,0c0,10.6,0,21,0,31.9C167.4,321.4,141.9,321.4,115.9,321.4z"/>
	<path d="M318,321.5c0-10.8,0-21.2,0-31.9c25.6,0,51.1,0,76.9,0c0,10.6,0,21.1,0,31.9C369.3,321.5,343.9,321.5,318,321.5z"/>
	<path d="M192.8,395.6c-9.1,0-17.8,0-26.4,0c-15.2,0-30.4-0.1-45.6,0.1c-4.2,0.1-5.3-1.3-5.2-5.3c0.3-7.9,0.2-15.8,0.1-23.7
		c0-2.5,0.7-3.7,3.4-3.7c24,0.1,48.1,0.1,72.1,0.1c0.4,0,0.9,0.2,1.6,0.4C192.8,374,192.8,384.5,192.8,395.6z"/>
	<path d="M193,141.9c0,10.6,0,20.9,0,31.7c-1.5,0.1-2.8,0.4-4.1,0.4c-22.8,0-45.6-0.1-68.4,0.1c-3.6,0-4.9-0.9-4.8-4.7
		c0.3-9,0.1-18,0.1-27.4C141.5,141.9,167,141.9,193,141.9z"/>
	<path d="M115.7,247.5c0-10,0.1-19.5,0-28.9c-0.1-3.7,2.3-3.3,4.7-3.3c19.2,0,38.5,0,57.7,0c4.8,0,9.6,0,14.7,0
		c0,10.9,0,21.3,0,32.2C167.3,247.5,141.8,247.5,115.7,247.5z"/>
	<path d="M395.2,247.6c-26.2,0-51.5,0-77.1,0c0-10.7,0-21.2,0-31.9c1.6-0.1,2.9-0.3,4.3-0.3c22.5,0,45,0,67.4-0.1
		c4.2,0,5.7,1.2,5.5,5.5C395,229.5,395.2,238.3,395.2,247.6z"/>
	<path d="M318.1,395.1c0-10.6,0-21,0-31.8c1.6-0.1,3.1-0.3,4.6-0.3c22.5,0,45,0.1,67.6,0c3.7,0,5.3,0.8,5.1,4.9
		c-0.3,7.9-0.1,15.8-0.1,23.8c0,2.6-0.5,4-3.6,4c-23.9-0.1-47.8-0.1-71.7-0.1C319.5,395.5,319.1,395.3,318.1,395.1z"/>
	<path d="M458.1,381.5c4.3,0,8.7,0.1,13,0c2.4-0.1,3.3,0.9,3.3,3.3c-0.1,7.9-0.1,15.8,0,23.8c0,2.7-1.2,3.4-3.7,3.4
		c-8.4-0.1-16.8-0.1-25.2,0c-2.9,0-3.8-1.1-3.7-3.9c0.1-7.6,0.1-15.2,0-22.8c0-2.8,0.8-3.9,3.7-3.8
		C449.7,381.6,453.9,381.5,458.1,381.5z"/>
</g>
</svg>
