<?xml version="1.0" encoding="utf-8"?>
<!-- Generator: Adobe Illustrator 26.0.0, SVG Export Plug-In . SVG Version: 6.00 Build 0)  -->
<svg version="1.1" id="Capa_1" xmlns="http://www.w3.org/2000/svg" xmlns:xlink="http://www.w3.org/1999/xlink" x="0px" y="0px"
	 viewBox="0 0 512 512" style="enable-background:new 0 0 512 512;" xml:space="preserve">
<g>
	<g>
		<g>
			<path d="M213.23,455.01c-41.49,0-82.96-0.01-124.44-0.04l-5.31,0.01c-6.11,0-13.2-0.13-20.27-1.67
				c-26.81-5.86-46.01-22.37-57.06-49.09c-3.43-8.28-5.07-16.81-5.04-26.06c0.13-30.54,0.12-61.6,0.11-91.65v-0.2
				c0-19.63-0.01-39.27,0.02-58.9c0.03-22.3,0.29-44.39,0.56-64.94c0.14-10.69,1.19-23.27,7.97-35.6
				C19.79,108.61,34.02,96,52.06,89.37c2.81-1.03,4.35-2.15,5.88-4.25C65.47,74.76,74.72,69.5,85.43,69.5
				c1.14,0,2.31,0.06,3.47,0.19c0.19,0,0.37-0.01,0.56-0.02l0.16-0.01c0.65-0.03,1.3-0.05,1.94-0.05
				c6.12,0.01,12.18,0.02,18.24,0.02c15.47,0,31.46,0.01,47.27,0.24c8.55,0.12,16.27,3.56,22.99,10.24
				c2.45-6.96,5.03-14.05,7.95-21.03c6.63-15.84,19.49-24.96,36.21-25.66c9.91-0.42,19.88-0.51,29.53-0.6
				c4.48-0.04,8.95-0.08,13.42-0.15c2.99-0.05,5.98-0.13,8.97-0.21l4.68-0.12l35.69,0l0.61,0.06c0.4,0.04,0.79,0.08,1.19,0.13
				c0.3,0.04,0.63,0.08,0.82,0.09c3.58,0.08,7.19,0.15,10.81,0.21c7.71,0.14,15.68,0.29,23.59,0.58c7.36,0.27,15.18,1.29,22.52,6.82
				c7.32,5.52,12.29,12.04,15.19,19.92c1.52,4.13,3.05,8.25,4.59,12.38c1.39,3.71,2.8,7.51,4.21,11.32
				c9.2,0.19,20.84,0.45,32.66,0.84c0.82,0.03,1.64,0.05,2.47,0.07c4.59,0.1,9.78,0.22,15.14,1.66
				c25.68,6.87,43.97,22.54,54.36,46.57c1.43,3.31,2.52,6.53,3.57,9.65c0.43,1.27,0.86,2.55,1.31,3.81l0.76,2.12v242.52l-0.75,2.1
				c-0.22,0.62-0.44,1.24-0.67,1.86c-0.42,1.16-0.82,2.26-1.16,3.32c-7.73,23.96-23.39,41.23-46.54,51.36l-1.02,0.45
				c-4.67,2.06-10.49,4.63-17.21,4.64C374.31,454.94,299.17,455.01,213.23,455.01z M56.29,383.16c2.97,6.37,7.04,11.13,12.42,14.54
				c2.6,1.64,4.91,2.34,7.73,2.34c36.79-0.11,72.58-0.12,102.74-0.12l117.87,0.01c47.17,0,94.34,0,141.51-0.02
				c7.97-3.33,13.25-8.45,16.14-15.66l0.1-0.25c0.09-0.23,0.25-0.61,0.37-0.93c0.07-78.37,0.06-158.41,0.04-226.49
				c-0.98-2.14-1.83-3.92-2.77-5.46c-4.64-7.62-9.45-10.95-16.09-11.15c-6.04-0.18-12.08-0.31-18.12-0.45l-0.21,0
				c-6.23-0.14-12.42-0.28-18.62-0.46c-5.05-0.15-10.12-0.4-15.02-0.65c-1.83-0.09-3.61-0.18-5.4-0.27
				c-11.05-0.53-19.24-6.53-23.05-16.9c-2.21-6-4.57-12.27-6.66-17.79c-1.92-5.1-3.9-10.34-5.87-15.65
				c-34.31-0.04-69.58-0.12-107.68-0.24c-1.47,4-2.96,8-4.27,11.48l-1.62,4.33c-2.23,5.96-4.54,12.12-6.97,18.21
				c-4.18,10.46-12.58,16.58-23.06,16.79l-0.95,0.02c-7.22,0.14-14.7,0.29-22.14,0.29c-5.47,0-10.38-0.08-15.02-0.24
				c-9.43-0.33-17.52-5.61-21.96-14.23c-0.02,0-16,0-16,0c-6.68,0-13.74,0-20.99,0.03c-3.42,6.25-10.34,13.29-24.29,14.93
				c-10.36,1.22-17.12,6.13-21.27,15.44l-0.27,0.6c-0.13,0.29-0.39,0.86-0.56,1.27c-0.1,75.26-0.08,150.77-0.07,223.79L56.29,383.16
				z"/>
		</g>
		<g>
			<path d="M285.56,393.24c-32.9,0-64.03-13.01-87.66-36.64c-23.6-23.6-36.63-54.69-36.69-87.55
				c-0.06-33.86,13.09-65.72,37.04-89.72c23.51-23.55,54.54-36.52,87.38-36.52h0.17c35.39,0.05,68.06,14.1,91.97,39.57
				c22.48,23.93,34.95,56.01,33.38,85.83c1.73,29.39-10.61,61.3-33.04,85.39c-23.68,25.44-56.41,39.51-92.16,39.63L285.56,393.24
				L285.56,393.24z M286.25,338.8c0.55,0.01,1.11,0.02,1.66,0.02c17.84,0,34.91-7.28,48.08-20.5c13.51-13.56,21.54-32.1,21.47-49.59
				c-0.13-34.27-27.41-71.34-71.26-71.47l-0.22,0c-38.42,0-70.01,32.08-70.41,71.52c-0.18,17.77,7.43,35.75,20.88,49.33
				c13.21,13.35,30.14,20.7,47.68,20.7c0.5,0,1-0.01,1.49-0.02l0.31-0.01L286.25,338.8z"/>
		</g>
		<g>
			<path d="M127.33,222.64c-0.63,0-1.26-0.02-1.9-0.06c-0.58,0.03-1.16,0.05-1.73,0.05c-8.27,0-16.12-3.35-22.09-9.44
				c-6.32-6.45-9.99-15.47-9.82-24.12c0.38-18.84,15.09-33.7,33.48-33.84l0.25,0c18.67,0,33.55,14.77,33.87,33.62
				c0.15,8.8-3.55,17.92-9.91,24.39C143.53,219.3,135.66,222.64,127.33,222.64z"/>
		</g>
	</g>
</g>
</svg>
