<?xml version="1.0" encoding="utf-8"?>
<!-- Generator: Adobe Illustrator 24.1.0, SVG Export Plug-In . SVG Version: 6.00 Build 0)  -->
<svg version="1.1" id="Capa_1" xmlns="http://www.w3.org/2000/svg" xmlns:xlink="http://www.w3.org/1999/xlink" x="0px" y="0px"
	 viewBox="0 0 512 512" style="enable-background:new 0 0 512 512;" xml:space="preserve">
<style type="text/css">
	.st0{stroke:#000000;stroke-width:18;stroke-miterlimit:10;}
</style>
<g>
	<g>
		<path class="st0" d="M433.4,199.6c0-97.8-79.6-177.4-177.4-177.4S78.6,101.8,78.6,199.6c0,60,30.6,116.1,80.6,148.7v55.9
			c0,53.4,43.4,96.8,96.8,96.8s96.8-43.4,96.8-96.8v-31.4c0,0,0-24.5,0-24.5C402.8,315.7,433.4,259.6,433.4,199.6z M318.6,404.2
			c0,34.5-28.1,62.6-62.6,62.6s-62.6-28.1-62.6-62.6v-14.3h125.3V404.2z M327.2,323.9c-5.3,3.1-8.6,8.7-8.6,14.8v17h-45.5v-88.4
			c22.2-7.2,38.3-28.1,38.3-52.7c0-9.4-7.7-17.1-17.1-17.1c-9.4,0-17.1,7.7-17.1,17.1c0,11.7-9.5,21.2-21.2,21.2
			c-11.7,0-21.2-9.5-21.2-21.2c0-9.4-7.7-17.1-17.1-17.1c-9.4,0-17.1,7.7-17.1,17.1c0,24.6,16.1,45.5,38.3,52.7v88.4h-45.5v-17
			c0-6.1-3.3-11.8-8.6-14.8c-44.4-25.5-72-73.1-72-124.3c0-79,64.2-143.2,143.2-143.2s143.2,64.2,143.2,143.2
			C399.2,250.8,371.6,298.4,327.2,323.9z"/>
	</g>
</g>
<g>
	<g>
		<path class="st0" d="M445.5,20.3c-5.6-5.8-14.7-5.9-20.5-0.4l-18.3,17.7c-5.8,5.6-5.9,14.7-0.4,20.5c1.3,1.3,2.7,2.3,4.2,3
			c5.3,2.5,11.8,1.6,16.3-2.7l18.3-17.7C450.9,35.3,451.1,26.1,445.5,20.3z"/>
	</g>
</g>
<g>
	<g>
		<path class="st0" d="M495.4,92.4c-3.8-7-12.6-9.6-19.6-5.8l-22.4,12.1c-7,3.8-9.6,12.6-5.8,19.6c0.9,1.6,2,2.9,3.3,4.1
			c4.4,3.8,10.9,4.7,16.4,1.8l22.4-12.1C496.6,108.3,499.2,99.5,495.4,92.4z"/>
	</g>
</g>
<g>
	<g>
		<path class="st0" d="M60.4,26.6c5-5.8,13.2-5.9,18.3-0.4l16.3,17.7c5.1,5.6,5.3,14.7,0.3,20.5c-1.1,1.3-2.4,2.3-3.8,3
			c-4.7,2.5-10.5,1.6-14.5-2.7L60.8,47.1C55.6,41.6,55.5,32.4,60.4,26.6z"/>
	</g>
</g>
<g>
	<g>
		<path class="st0" d="M15.9,98.7c3.4-7,11.3-9.6,17.5-5.8l20,12.1c6.3,3.8,8.6,12.6,5.2,19.6c-0.8,1.6-1.8,2.9-2.9,4.1
			c-4,3.8-9.8,4.7-14.6,1.8l-20-12.1C14.8,114.6,12.5,105.8,15.9,98.7z"/>
	</g>
</g>
</svg>
